<?xml version="1.0" standalone="no"?>
<!DOCTYPE svg PUBLIC "-//W3C//DTD SVG 1.1//EN" "http://www.w3.org/Graphics/SVG/1.1/DTD/svg11.dtd" >
<svg>
<metadata>
Created by FontForge 20090914 at Wed Aug  7 08:17:04 2013
 By www-data
Copyright &#60;C&#62; Rubicon Computer Labs Inc., 1995. Release 1.2
</metadata>
<defs>
<font id="HelvLight-Normal" horiz-adv-x="556" >
  <font-face 
    font-family="HelvLight"
    font-weight="5"
    font-stretch="normal"
    units-per-em="1000"
    panose-1="0 0 0 0 0 0 0 0 0 0"
    ascent="800"
    descent="-200"
    x-height="518"
    cap-height="720"
    bbox="-164 -211.999 1000 979"
    underline-thickness="20"
    underline-position="-123"
    unicode-range="U+0020-U+F002"
  />
<missing-glyph horiz-adv-x="788" 
d="M49 0v788h690v-788h-690zM690 49v690h-592v-690h592z" />
    <glyph glyph-name=".notdef" horiz-adv-x="788" 
d="M49 0v788h690v-788h-690zM690 49v690h-592v-690h592z" />
    <glyph glyph-name="space" unicode=" " horiz-adv-x="278" 
 />
    <glyph glyph-name="exclam" unicode="!" horiz-adv-x="333" 
d="M203 496l-14 -315h-45l-14 315v224h73v-224zM203 0h-73v88h73v-88z" />
    <glyph glyph-name="quotedbl" unicode="&#x22;" horiz-adv-x="278" 
d="M220 494h-52v226h52v-226zM109 494h-52v226h52v-226z" />
    <glyph glyph-name="numbersign" unicode="#" 
d="M530 427h-108l-20 -140h102v-59h-111l-32 -228h-59l31 228h-137l-34 -228h-59l34 228h-110v59h119l21 140h-112v59h120l32 212h60l-32 -212h136l31 212h59l-31 -212h100v-59zM363 427h-136l-22 -140h138z" />
    <glyph glyph-name="dollar" unicode="$" 
d="M518 169c0 -54 -21.167 -98.8311 -63.5 -134.498s-93.166 -53.5 -152.499 -53.5v-76h-46v76c-48.667 0 -91.167 12 -127.5 36s-62.5 60 -78.5 108c-5.33301 16 -8.83301 28.667 -10.5 38s-2.5 22.666 -2.5 39.999h65c0 -44.667 13.333 -83 40 -115
c29.333 -35.333 67 -53 113 -53v297c-66 16 -113.667 36 -143 60c-37.333 30.667 -56 73.667 -56 129c0 26 4.33301 49.5 13 70.5s20.667 39.167 36 54.5c19.333 19.333 40.833 34 64.5 44s52.5 15 86.5 15v61h46v-61c33.333 0 62.166 -5 86.499 -15
s44.833 -23.333 61.5 -40c12.667 -12.667 23.667 -29.834 33 -51.501s14 -44.834 14 -69.501h-65c0 39.333 -14.333 70.333 -43 93c-24.667 19.333 -53.667 29 -87 29v-266c79.333 -17.333 134.333 -40.666 165 -69.999c34 -32 51 -80.667 51 -146zM255 394.002v257
c-38 0 -70 -11.667 -96 -35s-39 -53.666 -39 -90.999c0 -38.667 12.667 -68.334 38 -89.001c18.667 -14.667 51 -28.667 97 -42zM454 179.002c0 46 -14.667 79.998 -44 101.998c-22 16.667 -58 30.334 -108 41.001v-287c44 0 80.333 14.333 109 43s43 62.334 43 101.001z
" />
    <glyph glyph-name="percent" unicode="%" horiz-adv-x="889" 
d="M821 165c0 -46 -15.667 -84.999 -47 -116.999s-70 -48 -116 -48s-85.167 16.167 -117.5 48.5s-48.5 71.166 -48.5 116.499c0 44.667 16.167 83.5 48.5 116.5s71.5 49.5 117.5 49.5c44.667 0 83 -16 115 -48s48 -71.333 48 -118zM668 705.001l-397 -719h-52l397 719h52z
M398 531.001c0 -44.667 -16.168 -83.166 -48.501 -115.499s-71.166 -48.5 -116.499 -48.5c-46 0 -85.167 16.167 -117.5 48.5s-48.5 71.166 -48.5 116.499c0 43.333 15.833 81.833 47.5 115.5s71.167 50.5 118.5 50.5c44 0 82.5 -16.167 115.5 -48.5
s49.5 -71.833 49.5 -118.5zM763.999 165.002c0 30 -10.3311 55.666 -30.998 76.999s-46 32 -76 32c-28.667 0 -53.834 -10.5 -75.501 -31.5s-32.5 -47.167 -32.5 -78.5c0 -28.667 10.667 -53.667 32 -75s46.666 -32 75.999 -32s54.5 10.833 75.5 32.5
s31.5 46.834 31.5 75.501zM341.001 532.001c0 30 -10.665 55.666 -31.998 76.999s-47 32 -77 32c-28.667 0 -53.834 -10.5 -75.501 -31.5s-32.5 -47.167 -32.5 -78.5c0 -28.667 10.667 -53.667 32 -75s46.666 -32 75.999 -32s54.833 10.833 76.5 32.5
s32.5 46.834 32.5 75.501z" />
    <glyph glyph-name="ampersand" unicode="&#x26;" horiz-adv-x="667" 
d="M644 0l-81.001 -0.00195312l-70 85c-30.667 -36.667 -64.167 -63.167 -100.5 -79.5s-78.5 -24.5 -126.5 -24.5c-64 0 -117 19.333 -159 58c-44 40.667 -66 92.667 -66 156c0 49.333 16.667 94 50 134c29.333 34.667 70 64.334 122 89.001
c-24.667 28.667 -43 54.334 -55 77.001c-14.667 28 -22 56 -22 84c0 43.333 15.333 77.666 46 102.999s69 38 115 38c43.333 0 79.5 -13.167 108.5 -39.5s43.5 -60.166 43.5 -101.499c0 -38.667 -12 -72 -36 -100c-20.667 -24.667 -56 -51 -106 -79l181 -214
c12.667 22 20.834 42.833 24.501 62.5s5.5 45.5 5.5 77.5h59c0 -42 -4.33301 -77.5 -13 -106.5s-21 -56.167 -37 -81.5zM384.999 576.998c0 24.667 -8.33301 45.667 -25 63s-38.667 26 -66 26c-30 0 -53.667 -8.33301 -71 -25s-26 -37 -26 -61c0 -16.667 7 -37 21 -61
c12 -21.333 30 -46 54 -74c39.333 22.667 67.333 43 84 61c19.333 21.333 29 45 29 71zM453.999 130.998l-205.002 243.999c-40.667 -18.667 -74.167 -44.5 -100.5 -77.5s-39.5 -68.833 -39.5 -107.5c0 -47.333 15.333 -85 46 -113s69.334 -42 116.001 -42
c36.667 0 70.334 8.83301 101.001 26.5s58 40.834 82 69.501z" />
    <glyph glyph-name="quotesingle" unicode="'" horiz-adv-x="222" 
d="M137 494h-52v226h52v-226z" />
    <glyph glyph-name="parenleft" unicode="(" horiz-adv-x="333" 
d="M277 -191l-51 0.00195312c-63.333 87.333 -107.666 166 -132.999 236s-38 147 -38 231c0 82.667 13.167 160.167 39.5 232.5s70.166 149.166 131.499 230.499h51c-50 -72.667 -88 -148.334 -114 -227.001s-39 -159 -39 -241c0 -68.667 10.333 -138 31 -208
c25.333 -85.333 66 -170 122 -254z" />
    <glyph glyph-name="parenright" unicode=")" horiz-adv-x="333" 
d="M278 272c0 -82.667 -13.167 -160.169 -39.5 -232.502s-70.166 -149.166 -131.499 -230.499h-51c50 72.667 88 148.334 114 227.001s39 159 39 241c0 68.667 -10.333 138 -31 208c-25.333 85.333 -66 170 -122 254h51c63.333 -87.333 107.666 -166 132.999 -236
s38 -147 38 -231z" />
    <glyph glyph-name="asterisk" unicode="*" horiz-adv-x="389" 
d="M344 601l-114 -37l75 -106l-39 -24l-74 108l-78 -106l-35 27l77 101l-112 40l18 42l111 -43v117h42v-117l114 42z" />
    <glyph glyph-name="plus" unicode="+" horiz-adv-x="660" 
d="M580 220h-220v-220h-60v220h-220v60h220v220h60v-220h220v-60z" />
    <glyph glyph-name="comma" unicode="," horiz-adv-x="278" 
d="M175 -31c0 -24.667 -5.33301 -45.668 -16 -63.001c-12.667 -20.667 -31.667 -35 -57 -43v37c22.667 12.667 34 34.334 34 65.001v35h-34v88h73v-119z" />
    <glyph glyph-name="hyphen" unicode="-" horiz-adv-x="333" 
d="M293 229h-253v62h253v-62z" />
    <glyph glyph-name="period" unicode="." horiz-adv-x="278" 
d="M175 0h-73v88h73v-88z" />
    <glyph glyph-name="slash" unicode="/" horiz-adv-x="278" 
d="M288 739l-235 -829h-56l235 829h56z" />
    <glyph glyph-name="zero" unicode="0" 
d="M516 339c0 -107.333 -15 -189 -45 -245c-38.667 -72 -102.667 -108 -192 -108c-90 0 -154.333 35.333 -193 106c-31.333 57.333 -47 142 -47 254c0 108.667 14.333 191 43 247c38.667 74.667 104 112 196 112s157 -38.333 195 -115c28.667 -57.333 43 -141 43 -251z
M452 348c0 95.333 -11.666 166.999 -34.999 214.999c-28.667 58.667 -75.667 88 -141 88c-62.667 0 -108.334 -30.667 -137.001 -92c-24 -51.333 -36 -124.666 -36 -219.999c0 -89.333 10 -157 30 -203c28 -64 76.333 -96 145 -96s116.667 33.333 144 100
c20 48 30 117.333 30 208z" />
    <glyph glyph-name="one" unicode="1" 
d="M366 0h-64v524h-182v42c66 0 112.5 10 139.5 30s45.5 56.333 55.5 109h51v-705z" />
    <glyph glyph-name="two" unicode="2" 
d="M515 511c0 -34 -5.50098 -63.335 -16.501 -88.002s-27.5 -48 -49.5 -70s-81.333 -60.667 -178 -116c-43.333 -24.667 -77.333 -49.334 -102 -74.001c-20 -20 -33.833 -38.667 -41.5 -56s-11.5 -35 -11.5 -53h393v-54h-461c0 44 5.5 80.333 16.5 109
s30.833 57.334 59.5 86.001s63 56.334 103 83.001l96 58c32 19.333 55.667 36.666 71 51.999c18.667 18.667 31.834 37.334 39.501 56.001s11.5 39.334 11.5 62.001c0 46 -15.667 82.333 -47 109c-28.667 24 -63.667 36 -105 36c-48 0 -87 -18 -117 -54
c-26 -31.333 -39 -68 -39 -110v-13h-68c0 74.667 22.667 132.667 68 174c41.333 38 95.333 57 162 57c68.667 0 122.667 -19.333 162 -58c36 -36 54 -81.333 54 -136z" />
    <glyph glyph-name="three" unicode="3" 
d="M512 202c0 -67.333 -23.333 -121.003 -70 -161.003c-43.333 -36.667 -98 -55 -164 -55c-40 0 -73.667 3.66699 -101 11c-34 9.33301 -61.333 24.333 -82 45c-33.333 33.333 -53.666 87.333 -60.999 162h64c0 -50.667 15.333 -90.667 46 -120s73.334 -44 128.001 -44
c48.667 0 90.167 14.833 124.5 44.5s51.5 65.5 51.5 107.5c0 50.667 -17 88.167 -51 112.5s-81.333 36.5 -142 36.5l-34 -1v52c69.333 0 119.666 10 150.999 30c34 22 51 58 51 108c0 39.333 -14.167 69.333 -42.5 90s-63.5 31 -105.5 31c-42.667 0 -78 -12 -106 -36
c-31.333 -27.333 -47 -65.666 -47 -114.999h-64c0 32.667 5.16699 61 15.5 85s25.666 46.167 45.999 66.5s43.833 34.333 70.5 42s58 11.5 94 11.5c60.667 0 108.667 -14 144 -42c39.333 -31.333 59 -76 59 -134c0 -37.333 -8.66699 -69.166 -26 -95.499
s-42 -46.166 -74 -59.499c83.333 -26 125 -83.333 125 -172z" />
    <glyph glyph-name="four" unicode="4" 
d="M520 174h-98v-174h-64v174h-322v55l328 469h58v-470h98v-54zM358 228v374l-259 -374h259z" />
    <glyph glyph-name="five" unicode="5" 
d="M506 221c0 -70.667 -21.499 -127.5 -64.499 -170.5s-95.833 -64.5 -158.5 -64.5c-79.333 0 -140.5 17.333 -183.5 52s-64.5 83 -64.5 145h64c6 -46 24.833 -81.333 56.5 -106s70.834 -37 117.501 -37c50 0 90.667 17 122 51s47 77 47 129
c0 53.333 -15.833 96.5 -47.5 129.5s-73.834 49.5 -126.501 49.5c-32.667 0 -61.334 -5.33301 -86.001 -16s-47.334 -29.667 -68.001 -57l-53 7l57 365h350v-54h-296l-44 -237c26.667 17.333 51.334 29.333 74.001 36s48.667 10 78 10c68 0 122.667 -21 164 -63
s62 -98.333 62 -169z" />
    <glyph glyph-name="six" unicode="6" 
d="M514 215c0 -72 -19.8311 -128.168 -59.498 -168.501s-94.5 -60.5 -164.5 -60.5c-79.333 0 -139.666 26 -180.999 78c-45.333 56.667 -68 144 -68 262c0 101.333 16 184 48 248c43.333 87.333 112.666 131 207.999 131c54.667 0 99.667 -13.333 135 -40
c40 -30.667 63.667 -75 71 -133h-66c-7.33301 36 -21.333 64.333 -42 85c-23.333 22.667 -54 34 -92 34c-71.333 0 -123.333 -31 -156 -93c-28 -53.333 -42 -128.666 -42 -225.999c25.333 37.333 52.166 65 80.499 83s62.166 27 101.499 27
c72 0 127.833 -19.833 167.5 -59.5s59.5 -95.5 59.5 -167.5zM450.002 218.999c0 52.667 -12.668 93.333 -38.001 122c-27.333 31.333 -68 47 -122 47c-49.333 0 -88.5 -17 -117.5 -51s-43.5 -75 -43.5 -123c0 -48.667 13 -89 39 -121c28.667 -35.333 69.334 -53 122.001 -53
c50.667 0 90 16.5 118 49.5s42 76.167 42 129.5z" />
    <glyph glyph-name="seven" unicode="7" 
d="M508 638c-64 -71.333 -119.334 -151.333 -166.001 -240c-40 -75.333 -70.667 -151 -92 -227c-18.667 -66 -28 -123 -28 -171h-70c0 83.333 25.333 183.333 76 300s118.334 228 203.001 334h-372v64h449v-60z" />
    <glyph glyph-name="eight" unicode="8" 
d="M512 201c0 -69.333 -23.332 -123 -69.999 -161c-44 -36 -102.667 -54 -176 -54c-56 0 -105 16.333 -147 49c-50 39.333 -75 93 -75 161c0 38.667 9 73.334 27 104.001c21.333 36 53.333 62.333 96 79c-38 22.667 -63.833 44.5 -77.5 65.5s-20.5 50.167 -20.5 87.5
c0 46 17.333 85.667 52 119c37.333 36 85.666 54 144.999 54c64 0 115.333 -14 154 -42c42 -30.667 63 -74.334 63 -131.001c0 -73.333 -32 -125.666 -96 -156.999c40.667 -14.667 71.667 -37.834 93 -69.501s32 -66.5 32 -104.5zM419.001 538
c0 36 -11.002 63.333 -33.002 82c-24 20.667 -60.333 31 -109 31c-45.333 0 -80.666 -11.667 -105.999 -35s-38 -54 -38 -92c0 -38.667 13.833 -69.167 41.5 -91.5s63.834 -33.5 108.501 -33.5c45.333 0 79.333 12.333 102 37s34 58.667 34 102zM447.999 198
c0 46 -15 82.001 -45 108.001s-71.333 39 -124 39c-52 0 -93.5 -12.833 -124.5 -38.5s-46.5 -62.834 -46.5 -111.501c0 -44.667 16 -81.667 48 -111s74.333 -44 127 -44c48 0 87.5 14.833 118.5 44.5s46.5 67.5 46.5 113.5z" />
    <glyph glyph-name="nine" unicode="9" 
d="M515 353c0 -120 -24.666 -212.333 -73.999 -277c-46 -60 -108 -90 -186 -90c-58.667 0 -107 15.333 -145 46s-57 71.667 -57 123h65c15.333 -76.667 60.333 -115 135 -115c61.333 0 108.666 23 141.999 69c37.333 52 56 133.333 56 244l-2 2c-20.667 -34 -45 -60 -73 -78
c-33.333 -21.333 -72.666 -32 -117.999 -32c-64 0 -116.167 20.5 -156.5 61.5s-60.5 95.833 -60.5 164.5c0 74 20.167 131.5 60.5 172.5s96.166 61.5 167.499 61.5c89.333 0 154.333 -35.333 195 -106c34 -58.667 51 -140.667 51 -246zM426.001 474
c0 54.667 -14.833 97.834 -44.5 129.501s-67.5 47.5 -113.5 47.5c-50.667 0 -90.5 -15.833 -119.5 -47.5s-43.5 -75.834 -43.5 -132.501c0 -52.667 14.167 -94.5 42.5 -125.5s68.166 -46.5 119.499 -46.5c46.667 0 84.834 15.833 114.501 47.5s44.5 74.167 44.5 127.5z" />
    <glyph glyph-name="colon" unicode=":" horiz-adv-x="278" 
d="M175 404h-73v88h73v-88zM175 0h-73v88h73v-88z" />
    <glyph glyph-name="semicolon" unicode=";" horiz-adv-x="278" 
d="M175 404h-73v88h73v-88zM175 -31c0 -24.667 -5.33301 -45.668 -16 -63.001c-12.667 -20.667 -31.667 -35 -57 -43v37c22.667 12.667 34 34.334 34 65.001v35h-34v88h73v-119z" />
    <glyph glyph-name="less" unicode="&#x3c;" horiz-adv-x="660" 
d="M580 -6l-500 235v53l500 223v-64l-421 -186l421 -197v-64z" />
    <glyph glyph-name="equal" unicode="=" horiz-adv-x="660" 
d="M580 318h-500v60h500v-60zM580 124h-500v60h500v-60z" />
    <glyph glyph-name="greater" unicode="&#x3e;" horiz-adv-x="660" 
d="M580 229l-500 -235v64l421 197l-421 186v64l500 -223v-53z" />
    <glyph glyph-name="question" unicode="?" horiz-adv-x="500" 
d="M472 551c0 -26 -4.99805 -48.667 -14.998 -68s-28.333 -42.333 -55 -69l-65 -62c-24.667 -24.667 -41.334 -47.334 -50.001 -68.001s-13 -47 -13 -79v-23h-58v31c0 36 4.5 66.167 13.5 90.5s25.5 48.5 49.5 72.5l85 84c29.333 34 44 66.333 44 97
c0 37.333 -14.333 68 -43 92s-65 36 -109 36c-52 0 -92 -16.667 -120 -50c-24.667 -29.333 -37 -65.666 -37 -108.999v-10h-61v24c0 57.333 20.167 104.833 60.5 142.5s92.166 56.5 155.499 56.5c66 0 118.833 -16.333 158.5 -49s59.5 -79 59.5 -139zM283.002 0h-73v88h73
v-88z" />
    <glyph glyph-name="at" unicode="@" horiz-adv-x="800" 
d="M760 423c0 -75.333 -24.6689 -142.833 -74.002 -202.5s-102.666 -89.5 -159.999 -89.5c-20.667 0 -38.667 4.66699 -54 14s-25.666 22 -30.999 38c-15.333 -16 -33.5 -28.333 -54.5 -37s-42.5 -13 -64.5 -13c-44.667 0 -79.667 15.667 -105 47
c-22.667 28 -34 61.333 -34 100c0 76.667 23.667 146 71 208c50 65.333 108.667 98 176 98c25.333 0 48.166 -6 68.499 -18s35.166 -28 44.499 -48l15 46h67l-96 -287l-11 -33.5c-4 -12.333 -6 -23.833 -6 -34.5c0 -18.667 9.66699 -28 29 -28c40 0 77 27.333 111 82
c32 52 48 106.333 48 163c0 75.333 -27 137.666 -81 186.999s-121.667 74 -203 74c-89.333 0 -164.333 -32 -225 -96s-91 -143 -91 -237c0 -90.667 30.333 -167.5 91 -230.5s137.667 -94.5 231 -94.5c56 0 109 14.333 159 43c44 24.667 78.333 55.667 103 93h59
c-28 -53.333 -71.667 -97.666 -131 -132.999s-122.666 -53 -189.999 -53c-111.333 0 -203.666 38.667 -276.999 116c-70 73.333 -105 162 -105 266c0 102 36.5 190.167 109.5 264.5s161.5 111.5 265.5 111.5c98 0 180 -30.333 246 -91s99 -135.667 99 -225zM501.998 452
c0 22.667 -6.5 40.834 -19.5 54.501s-29.167 20.5 -48.5 20.5c-50 0 -92.667 -28.667 -128 -86c-31.333 -50.667 -47 -101.334 -47 -152.001c0 -28 7.16699 -50.5 21.5 -67.5s32.833 -25.5 55.5 -25.5c44 0 83.667 32.333 119 97c31.333 56.667 47 109.667 47 159z" />
    <glyph glyph-name="A" unicode="A" horiz-adv-x="667" 
d="M651 0h-70l-83 226h-328l-85 -226h-70l283 720h77zM475 284l-141 378l-141 -378h282z" />
    <glyph glyph-name="B" unicode="B" horiz-adv-x="667" 
d="M610 206c0 -70 -19.832 -121.832 -59.499 -155.499s-97.834 -50.5 -174.501 -50.5h-295v720h258c81.333 0 141.333 -15.5 180 -46.5s58 -75.833 58 -134.5c0 -42.667 -10 -77.334 -30 -104.001s-48.333 -43.667 -85 -51c40.667 -6.66699 74 -23 100 -49
c32 -32 48 -75 48 -129zM509.001 539.001c0 44.667 -14.833 76.333 -44.5 95s-83.167 28 -160.5 28h-155v-260h172c70 0 120 13 150 39c25.333 22 38 54.667 38 98zM542.001 202c0 52 -16.333 88.667 -49 110s-85.667 32 -159 32h-185v-286h185
c79.333 0 133.833 10.5 163.5 31.5s44.5 58.5 44.5 112.5z" />
    <glyph glyph-name="C" unicode="C" horiz-adv-x="722" 
d="M670 237c-40 -170.667 -143.998 -256.001 -311.998 -256.001c-108 0 -189 39.667 -243 119c-44.667 66 -67 152 -67 258c0 134.667 33.333 234.334 100 299.001c56.667 54.667 134.667 82 234 82c68 0 125.667 -15.667 173 -47c58 -38.667 93.667 -99 107 -181h-70
c-13.333 62.667 -41 107.667 -83 135c-35.333 23.333 -82.666 35 -141.999 35c-82.667 0 -146.334 -31.667 -191.001 -95c-40 -57.333 -60 -132.333 -60 -225c0 -90.667 17.667 -163.667 53 -219c44 -68.667 111.667 -103 203 -103c51.333 0 95.666 14 132.999 42
c45.333 34 76.666 86 93.999 156h71z" />
    <glyph glyph-name="D" unicode="D" horiz-adv-x="722" 
d="M669 361c0 -124.667 -32.333 -219.334 -97 -284.001c-26 -26 -58.167 -45.333 -96.5 -58s-86.5 -19 -144.5 -19h-250v720h257c54.667 0 101 -5.83301 139 -17.5s71.667 -32.167 101 -61.5c27.333 -27.333 49.333 -66.666 66 -117.999s25 -105.333 25 -162zM601 361
c0 54.667 -6.33496 101.833 -19.002 141.5s-31.167 71.667 -55.5 96s-52.5 41 -84.5 50s-74.333 13.5 -127 13.5h-166v-604h176c46.667 0 86.334 5.5 119.001 16.5s59.334 26.833 80.001 47.5c26.667 26.667 46.167 60.167 58.5 100.5s18.5 86.5 18.5 138.5z" />
    <glyph glyph-name="E" unicode="E" horiz-adv-x="611" 
d="M570 0h-489v720h479v-58h-411v-260h371v-58h-371v-286h421v-58z" />
    <glyph glyph-name="F" unicode="F" 
d="M538 662h-396v-260h360v-58h-360v-344h-68v720h464v-58z" />
    <glyph glyph-name="G" unicode="G" horiz-adv-x="778" 
d="M695 0l-57.999 -0.000976562v123c-26.667 -46.667 -61.834 -82 -105.501 -106s-97.167 -36 -160.5 -36c-104.667 0 -185 36.667 -241 110c-51.333 67.333 -77 158 -77 272c0 114.667 28.333 205.334 85 272.001c59.333 69.333 141.333 104 246 104
c79.333 0 145.833 -19.167 199.5 -57.5s88.167 -95.166 103.5 -170.499h-70c-12 53.333 -39.167 95 -81.5 125s-90.833 45 -145.5 45c-90 0 -158 -31.333 -204 -94c-43.333 -58.667 -65 -141.334 -65 -248.001c0 -84.667 23 -155 69 -211
c48.667 -59.333 112.667 -89 192 -89c70 0 127.667 22 173 66c24 24 42.5 53.333 55.5 88s19.5 75 19.5 121h-243v58h308v-372z" />
    <glyph glyph-name="H" unicode="H" horiz-adv-x="722" 
d="M642 0h-68v353h-426v-353h-68v720h68v-309h426v309h68v-720z" />
    <glyph glyph-name="I" unicode="I" horiz-adv-x="278" 
d="M173 0h-68v720h68v-720z" />
    <glyph glyph-name="J" unicode="J" horiz-adv-x="500" 
d="M415 198c0 -73.333 -17.332 -127.833 -51.999 -163.5s-83.334 -53.5 -146.001 -53.5c-70 0 -120 19.667 -150 59s-45 102 -45 188h68c0 -38 1.33301 -65.167 4 -81.5s8.16699 -33 16.5 -50s21.5 -30.167 39.5 -39.5s42.333 -14 73 -14c39.333 0 69 10.667 89 32
c23.333 24.667 35 64.667 35 120v525h68v-522z" />
    <glyph glyph-name="K" unicode="K" horiz-adv-x="667" 
d="M649 0h-83l-300 391l-113 -113v-278h-68v720h68v-373l369 373h77l-284 -287z" />
    <glyph glyph-name="L" unicode="L" 
d="M535 0h-454v720h68v-662h386v-58z" />
    <glyph glyph-name="M" unicode="M" horiz-adv-x="833" 
d="M755 0h-68v642l-238 -642h-64l-237 642l-2 -642h-68v720h104l236 -635l234 635h103v-720z" />
    <glyph glyph-name="N" unicode="N" horiz-adv-x="722" 
d="M642 0h-79l-414 628l-2 -628h-68v720h77l416 -629l2 629h68v-720z" />
    <glyph glyph-name="O" unicode="O" horiz-adv-x="778" 
d="M724 359c0 -104.667 -26 -191 -78 -259c-60.667 -79.333 -146.667 -119 -258 -119c-102.667 0 -184.167 34.5 -244.5 103.5s-90.5 161.5 -90.5 277.5c0 107.333 27.667 195.333 83 264c60.667 75.333 144 113 250 113c107.333 0 191.333 -36.667 252 -110
c57.333 -68.667 86 -158.667 86 -270zM656 360c0 98 -23.665 176.002 -70.998 234.002s-113.333 87 -198 87c-85.333 0 -152 -32 -200 -96c-44 -58.667 -66 -133.334 -66 -224.001c0 -92.667 20.333 -167.334 61 -224.001c47.333 -65.333 116.666 -98 207.999 -98
c89.333 0 157.666 33.333 204.999 100c40.667 57.333 61 131 61 221z" />
    <glyph glyph-name="P" unicode="P" horiz-adv-x="611" 
d="M576 519c0 -76 -31.333 -130.666 -94 -163.999c-46.667 -24.667 -106 -37 -178 -37h-158v-318h-68v720h262c86 0 148.333 -19.333 187 -58c32.667 -32.667 49 -80.334 49 -143.001zM508 526.001c0 49.333 -19 85.333 -57 108c-31.333 18.667 -73.333 28 -126 28h-179
v-286h158c74 0 126.5 11.5 157.5 34.5s46.5 61.5 46.5 115.5z" />
    <glyph glyph-name="Q" unicode="Q" horiz-adv-x="778" 
d="M719 359c0 -57.333 -8.66797 -111.167 -26.001 -161.5s-44.666 -93.5 -81.999 -129.5l96 -74l-38 -46l-106 82c-26 -16 -53.5 -28.167 -82.5 -36.5s-61.5 -12.5 -97.5 -12.5c-102.667 0 -184.167 34.5 -244.5 103.5s-90.5 161.5 -90.5 277.5c0 106 27.667 193.667 83 263
c60.667 76 144 114 250 114c104 0 186.333 -33.667 247 -101s91 -160.333 91 -279zM650.999 359.999c0 98 -23.667 176.002 -71 234.002s-113.333 87 -198 87c-85.333 0 -152 -32 -200 -96c-44 -58.667 -66 -133.334 -66 -224.001c0 -92.667 20.333 -167.334 61 -224.001
c47.333 -65.333 116.666 -98 207.999 -98c47.333 0 89 10.667 125 32l-82 63l36 47l97 -74c30.667 30 53.334 66.833 68.001 110.5s22 91.167 22 142.5z" />
    <glyph glyph-name="R" unicode="R" horiz-adv-x="667" 
d="M612 0h-75c-8 14.667 -14.167 37 -18.5 67s-6.5 60.667 -6.5 92c0 57.333 -6 96.333 -18 117c-20 34 -61.667 51 -125 51h-221v-327h-68v720h282c79.333 0 139 -14 179 -42c44 -31.333 66 -80.333 66 -147c0 -48 -10 -85.667 -30 -113c-17.333 -24 -46.333 -45 -87 -63
c33.333 -12 57 -32.833 71 -62.5s21 -72.834 21 -129.501c0 -42 2 -76.667 6 -104s12 -44.666 24 -51.999v-7zM539 528c0 40.667 -11.333 71.667 -34 93c-28.667 27.333 -75 41 -139 41h-218v-277h215c54 0 96.833 12.5 128.5 37.5s47.5 60.167 47.5 105.5z" />
    <glyph glyph-name="S" unicode="S" horiz-adv-x="611" 
d="M567 191c0 -73.333 -27.998 -128.33 -83.998 -164.997c-46 -30 -104.667 -45 -176 -45c-86.667 0 -153.334 22.667 -200.001 68c-42.667 41.333 -64 96.666 -64 165.999h66c5.33301 -60 26 -104.333 62 -133s84.333 -43 145 -43c62 0 109 15.333 141 46
c28 26.667 42 59.667 42 99c0 29.333 -6.5 53.166 -19.5 71.499s-31.833 33.833 -56.5 46.5c-14 7.33301 -68.333 23 -163 47c-42.667 10.667 -76.334 22.334 -101.001 35.001c-28.667 14.667 -51 32.667 -67 54c-21.333 29.333 -32 66 -32 110
c0 53.333 20.667 97.666 62 132.999c44.667 38.667 105.334 58 182.001 58s137 -21 181 -63c40.667 -38.667 61 -89.334 61 -152.001h-65c0 52.667 -18.333 93 -55 121c-31.333 24 -71.333 36 -120 36c-54.667 0 -98.167 -12.167 -130.5 -36.5s-48.5 -58.166 -48.5 -101.499
c0 -26 5.66699 -47.167 17 -63.5s29.666 -30.833 54.999 -43.5l270 -81c65.333 -32.667 98 -87.334 98 -164.001z" />
    <glyph glyph-name="T" unicode="T" 
d="M540 662h-228v-662h-68v662h-228v58h524v-58z" />
    <glyph glyph-name="U" unicode="U" horiz-adv-x="722" 
d="M640 272c0 -97.333 -24.167 -170.167 -72.5 -218.5s-116.833 -72.5 -205.5 -72.5c-85.333 0 -151.666 21.333 -198.999 64c-54 48.667 -81 124 -81 226v449h68v-432c0 -88 17.167 -151.5 51.5 -190.5s87.166 -58.5 158.499 -58.5c70.667 0 122.667 17.333 156 52
c37.333 39.333 56 104 56 194v435h68v-448z" />
    <glyph glyph-name="V" unicode="V" horiz-adv-x="611" 
d="M593 720l-250 -720h-75l-250 720h71l217 -640l216 640h71z" />
    <glyph glyph-name="W" unicode="W" horiz-adv-x="889" 
d="M875 720l-189 -720h-75l-167 636l-169 -636h-75l-186 720h68l155 -624l169 624h76l164 -624l159 624h70z" />
    <glyph glyph-name="X" unicode="X" horiz-adv-x="611" 
d="M592 0h-78l-210 318l-209 -318h-77l248 370l-238 350h79l197 -303l198 303h79l-236 -350z" />
    <glyph glyph-name="Y" unicode="Y" horiz-adv-x="611" 
d="M598 720l-261 -406v-314h-68v309l-257 411h78l212 -347l217 347h79z" />
    <glyph glyph-name="Z" unicode="Z" horiz-adv-x="611" 
d="M579 0h-548v57l461 605h-422v58h506v-57l-461 -605h464v-58z" />
    <glyph glyph-name="bracketleft" unicode="[" horiz-adv-x="333" 
d="M282 689h-127v-830h125v-50h-189v930h191v-50z" />
    <glyph glyph-name="backslash" unicode="\" horiz-adv-x="278" 
d="M324 0h-60l-310 739h60z" />
    <glyph glyph-name="bracketright" unicode="]" horiz-adv-x="333" 
d="M242 -191h-191v50h127v830h-125v50h189v-930z" />
    <glyph glyph-name="asciicircum" unicode="^" horiz-adv-x="660" 
d="M586 245h-57l-201 392l-197 -392h-58l230 453h52z" />
    <glyph glyph-name="underscore" unicode="_" horiz-adv-x="500" 
d="M500 -119h-500v58h500v-58z" />
    <glyph glyph-name="grave" unicode="`" horiz-adv-x="333" 
d="M234 574h-51l-138 139h78z" />
    <glyph glyph-name="a" unicode="a" 
d="M534 2c-11.333 -4 -19.833 -6.66699 -25.5 -8s-12.834 -2 -21.501 -2c-26 0 -44.333 5 -55 15c-13.333 12 -20 33.667 -20 65c-26.667 -30 -58 -52.333 -94 -67c-31.333 -12.667 -64.333 -19 -99 -19c-49.333 0 -90 12.667 -122 38c-34 27.333 -51 64.333 -51 111
c0 46 17 82.333 51 109c30.667 24 74 39.667 130 47l75 10l45 6c25.333 4 42.333 10.333 51 19s13 24 13 46c0 33.333 -10.5 59.333 -31.5 78s-53.167 28 -96.5 28c-49.333 0 -85.666 -9.33301 -108.999 -28s-37.666 -48.334 -42.999 -89.001h-61c0 50 17.333 90.333 52 121
c38 33.333 91.667 50 161 50c55.333 0 98.666 -11 129.999 -33c38.667 -27.333 58 -70.666 58 -129.999v-280c0 -32 9 -48 27 -48c10 0 22 2.66699 36 8v-47zM411 191l-0.000976562 81c-29.333 -12 -64.333 -20 -105 -24c-74.667 -8 -122 -17 -142 -27
c-36 -18 -54 -47 -54 -87c0 -28.667 10.833 -51.5 32.5 -68.5s49.167 -25.5 82.5 -25.5c48.667 0 90.334 11.667 125.001 35c40.667 27.333 61 66 61 116z" />
    <glyph glyph-name="b" unicode="b" horiz-adv-x="611" 
d="M555 261c0 -86 -19 -152.668 -57 -200.001c-40 -50 -99 -75 -177 -75c-35.333 0 -70 9.33301 -104 28s-59.333 44.334 -76 77.001l-2 -91h-60v720h60v-285c16 27.333 40.5 50.333 73.5 69s69.833 28 110.5 28c76 0 134.667 -27.667 176 -83
c37.333 -50 56 -112.667 56 -188zM491 254.999c0 68 -15.5 122.163 -46.5 162.496s-74.167 60.5 -129.5 60.5c-50.667 0 -92.667 -20.167 -126 -60.5s-50 -93.166 -50 -158.499c0 -61.333 14 -111.666 42 -150.999c32 -45.333 77.667 -68 137 -68
c22.667 0 43.667 3.83301 63 11.5s36.333 18.834 51 33.501c19.333 19.333 34 42.333 44 69s15 60.334 15 101.001z" />
    <glyph glyph-name="c" unicode="c" 
d="M508 179c-12.667 -67.333 -40.3311 -117.331 -82.998 -149.998c-37.333 -28.667 -83.333 -43 -138 -43c-82 0 -143.667 27 -185 81c-36.667 48 -55 111.667 -55 191c0 75.333 19.667 138.333 59 189c44 56.667 104 85 180 85c60.667 0 109.167 -14.333 145.5 -43
s59.166 -73.334 68.499 -134.001h-61c-11.333 42 -30.5 73 -57.5 93s-58.833 30 -95.5 30c-56 0 -99.167 -21 -129.5 -63s-45.5 -94.333 -45.5 -157s13.667 -113.334 41 -152.001c31.333 -44 76.333 -66 135 -66c43.333 0 78.666 12.333 105.999 37s44.333 58.667 51 102h64
z" />
    <glyph glyph-name="d" unicode="d" horiz-adv-x="611" 
d="M532 0l-60.001 0.000976562v91c-17.333 -32.667 -43.5 -58.334 -78.5 -77.001s-69.833 -28 -104.5 -28c-73.333 0 -130 22.667 -170 68c-42 47.333 -63 115 -63 203c0 76 17.667 138.667 53 188c41.333 58 101.333 87 180 87c38.667 0 74.834 -9.16699 108.501 -27.5
s58.5 -41.5 74.5 -69.5v285h60v-720zM471.999 260.001c0 64.667 -16.666 117.167 -49.999 157.5s-75.333 60.5 -126 60.5c-56 0 -99.333 -20.333 -130 -61s-46 -94.667 -46 -162c0 -37.333 4.5 -69.5 13.5 -96.5s23.5 -50.833 43.5 -71.5
c14.667 -14.667 31.667 -26.167 51 -34.5s41.333 -12.5 66 -12.5c59.333 0 104.666 22.667 135.999 68c28 40 42 90.667 42 152z" />
    <glyph glyph-name="e" unicode="e" 
d="M511 245l-401.999 0.000976562c0 -62 15.667 -111.667 47 -149s74 -56 128 -56c36.667 0 68.667 9.33301 96 28c30.667 21.333 50.667 51.666 60 90.999h67c-16 -53.333 -40 -94 -72 -122c-38 -34 -88 -51 -150 -51c-84 0 -146.667 28 -188 84
c-34.667 47.333 -52 109 -52 185c0 78.667 20.667 143.667 62 195c44 54.667 102.667 82 176 82c75.333 0 132.666 -26.333 171.999 -79c37.333 -50 56 -119.333 56 -208zM447.001 295.001c0 51.333 -12.667 93.333 -38 126c-29.333 38 -71.333 57 -126 57
c-44.667 0 -82 -14.667 -112 -44c-33.333 -32 -54 -78.333 -62 -139h338z" />
    <glyph glyph-name="f" unicode="f" horiz-adv-x="278" 
d="M257 468h-100.001v-468h-60v468h-77v50h77v82c0 46.667 9.33301 80.667 28 102s45.334 32 80.001 32h23.5c7 0 16.5 -1.33301 28.5 -4v-55l-17.5 3.5c-5 1 -11.167 1.5 -18.5 1.5c-22 0 -38.167 -6.66699 -48.5 -20s-15.5 -35.333 -15.5 -66v-76h100v-50z" />
    <glyph glyph-name="g" unicode="g" horiz-adv-x="611" 
d="M532 44c0 -94 -24.334 -161.999 -73.001 -203.999c-40 -34.667 -96.667 -52 -170 -52c-58 0 -106.667 12.333 -146 37c-42.667 26.667 -67 64 -73 112h64c14 -63.333 64.333 -95 151 -95c42.667 0 76.834 6.83301 102.501 20.5s45.834 35.167 60.501 64.5
c9.33301 18 15.666 38.667 18.999 62s5 54.666 5 93.999c-14.667 -26 -37.667 -48 -69 -66c-36 -20.667 -74 -31 -114 -31c-73.333 0 -130.5 25.167 -171.5 75.5s-61.5 116.833 -61.5 199.5c0 88.667 20.667 156 62 202s99 69 173 69c40 0 77.333 -11 112 -33
c32 -20 54.333 -44 67 -72l2 91h60v-474zM471.999 260.001c0 64 -15.001 115.667 -45.001 155c-32 42 -76 63 -132 63c-26 0 -48.667 -4.33301 -68 -13s-37 -21 -53 -37c-36 -36 -54 -91.333 -54 -166c0 -70 15.833 -124.5 47.5 -163.5s74.834 -58.5 129.501 -58.5
c52 0 94.167 20.5 126.5 61.5s48.5 93.833 48.5 158.5z" />
    <glyph glyph-name="h" unicode="h" 
d="M483 0l-59.999 0.000976562v341c0 47.333 -11 82 -33 104s-55 33 -99 33c-46.667 0 -84.834 -16.167 -114.501 -48.5s-44.5 -75.833 -44.5 -130.5v-299h-60v720h60v-274c35.333 36 65 59.333 89 70s50 16 78 16c81.333 0 137 -30 167 -90
c6 -11.333 10.333 -25.333 13 -42s4 -34.334 4 -53.001v-347z" />
    <glyph glyph-name="i" unicode="i" horiz-adv-x="222" 
d="M144 631h-66v89h66v-89zM141 0h-60v518h60v-518z" />
    <glyph glyph-name="j" unicode="j" horiz-adv-x="222" 
d="M151 631h-66v89h66v-89zM148 -71c0 -48 -5.66699 -81 -17 -99c-14.667 -22.667 -43.334 -34 -86.001 -34c-11.333 0 -24.666 1.33301 -39.999 4v53l24 -2c22 0 37.333 5.33301 46 16s13 28.667 13 54v597h60v-589z" />
    <glyph glyph-name="k" unicode="k" horiz-adv-x="500" 
d="M487 0h-67l-194 289l-98 -93v-196h-60v720h60v-448l254 246h82l-194 -187z" />
    <glyph glyph-name="l" unicode="l" horiz-adv-x="222" 
d="M141 0h-60v720h60v-720z" />
    <glyph glyph-name="m" unicode="m" horiz-adv-x="833" 
d="M768 0l-60.0029 -0.000976562v359c0 40 -8.5 69.833 -25.5 89.5s-45.167 29.5 -84.5 29.5c-28 0 -53.667 -7.16699 -77 -21.5s-40.666 -32.833 -51.999 -55.5c-6.66699 -13.333 -12.167 -30.833 -16.5 -52.5s-6.5 -43.167 -6.5 -64.5v-284h-60v359
c0 42 -9.16699 72.333 -27.5 91s-45.166 28 -80.499 28c-32 0 -60.333 -8.33301 -85 -25c-20 -13.333 -35 -30 -45 -50c-6 -12.667 -11.5 -30.167 -16.5 -52.5s-7.5 -44.5 -7.5 -66.5v-284h-60v518h60v-79c15.333 28.667 37.5 51.334 66.5 68.001s61.833 25 98.5 25
c39.333 0 70.833 -8.16699 94.5 -24.5s41.834 -41.5 54.501 -75.5c16 32.667 39.167 57.5 69.5 74.5s63.166 25.5 98.499 25.5c54.667 0 95.334 -15.5 122.001 -46.5s40 -81.833 40 -152.5v-333z" />
    <glyph glyph-name="n" unicode="n" 
d="M483 0l-60 0.00195312v340c0 92 -44 138 -132 138c-64 0 -110 -27.667 -138 -83c-14 -28 -21 -62.333 -21 -103v-292h-60v518h60v-72c26.667 28.667 53.167 50.167 79.5 64.5s55.5 21.5 87.5 21.5c27.333 0 52.833 -3.83301 76.5 -11.5s44.167 -20.334 61.5 -38.001
s29.333 -36.834 36 -57.501s10 -46.667 10 -78v-347z" />
    <glyph glyph-name="o" unicode="o" 
d="M518 259c0 -80 -21.333 -145.501 -64 -196.501s-101 -76.5 -175 -76.5c-69.333 0 -126 23 -170 69c-47.333 50 -71 117.667 -71 203c0 82.667 21.167 149 63.5 199s101.166 75 176.499 75c76.667 0 136.334 -25.667 179.001 -77c40.667 -49.333 61 -114.666 61 -195.999z
M454 256.999c0 66.667 -12.999 118.668 -38.999 156.001c-30 43.333 -75.667 65 -137 65c-56 0 -99.333 -20 -130 -60s-46 -93 -46 -159c0 -68.667 15.667 -122.334 47 -161.001s74.666 -58 129.999 -58c58 0 102.667 22.333 134 67c27.333 39.333 41 89.333 41 150z" />
    <glyph glyph-name="p" unicode="p" horiz-adv-x="611" 
d="M555 257c0 -76 -18.667 -138.666 -56 -187.999c-42 -55.333 -100.333 -83 -175 -83c-36 0 -71.167 8.33301 -105.5 25s-60.833 40.667 -79.5 72v-287h-60v722h60v-91c14 27.333 38.333 51.666 73 72.999s70.667 32 108 32c73.333 0 130 -21.667 170 -65
c43.333 -46.667 65 -116.667 65 -210zM491 263.001c0 40.667 -4.5 73.833 -13.5 99.5s-22.5 47.5 -40.5 65.5s-37.167 30.833 -57.5 38.5s-41.5 11.5 -63.5 11.5c-58.667 0 -103.667 -22.333 -135 -67c-28 -39.333 -42 -90.333 -42 -153c0 -65.333 16.667 -118 50 -158
s75.333 -60 126 -60c54 0 96.833 19.833 128.5 59.5s47.5 94.167 47.5 163.5z" />
    <glyph glyph-name="q" unicode="q" horiz-adv-x="611" 
d="M532 -204h-60v287c-17.333 -28.667 -42.5 -52 -75.5 -70s-68.833 -27 -107.5 -27c-76.667 0 -135.667 27.333 -177 82c-37.333 49.333 -56 113.333 -56 192c0 82.667 17.667 147 53 193c40 52.667 101 79 183 79c32 0 64 -8.33301 96 -25c38 -20 65.333 -46.667 82 -80
l2 91h60v-722zM472 260c0 62.667 -15.999 114.668 -47.999 156.001s-74.333 62 -127 62c-56.667 0 -100.334 -20.333 -131.001 -61s-46 -94.334 -46 -161.001c0 -40.667 4.5 -74 13.5 -100s23.5 -49 43.5 -69c14.667 -14.667 32 -26.167 52 -34.5s42 -12.5 66 -12.5
c57.333 0 102 22.333 134 67c28.667 40.667 43 91.667 43 153z" />
    <glyph glyph-name="r" unicode="r" horiz-adv-x="333" 
d="M306 467c-35.333 0 -64.833 -5.99805 -88.5 -17.998s-42.5 -31.667 -56.5 -59c-17.333 -34.667 -26 -78.334 -26 -131.001v-259h-60v518h60v-97c17.333 43.333 42 73.666 74 90.999c24.667 13.333 57 20 97 20v-65z" />
    <glyph glyph-name="s" unicode="s" horiz-adv-x="500" 
d="M454 137c0 -48 -18.999 -85.166 -56.999 -111.499s-88.667 -39.5 -152 -39.5c-56.667 0 -103.334 15 -140.001 45c-39.333 32 -59 75.667 -59 131h61c9.33301 -43.333 25.833 -74.5 49.5 -93.5s58.5 -28.5 104.5 -28.5c42 0 74.667 10 98 30c20.667 17.333 31 39 31 65
c0 41.333 -28.667 70.333 -86 87l-160 40c-57.333 23.333 -86 64.666 -86 123.999c0 43.333 16.5 78.5 49.5 105.5s77.167 40.5 132.5 40.5c58 0 104 -12.833 138 -38.5s54.667 -67.167 62 -124.5h-61c-10 72.667 -56.667 109 -140 109c-36 0 -64.5 -7.83301 -85.5 -23.5
s-31.5 -37.167 -31.5 -64.5c0 -38 28.667 -66 86 -84l160 -46c57.333 -25.333 86 -66.333 86 -123z" />
    <glyph glyph-name="t" unicode="t" horiz-adv-x="278" 
d="M254 -2c-6.66699 -2 -17.5 -4.50098 -32.5 -7.50098s-27.167 -4.5 -36.5 -4.5c-33.333 0 -57 8.33301 -71 25s-21 42.334 -21 77.001v380h-73v50h73v144h60v-144h97v-50h-97v-363c0 -26 3.33301 -43.333 10 -52s21 -13 43 -13c18 0 34 2.66699 48 8v-50z" />
    <glyph glyph-name="u" unicode="u" 
d="M483 0l-60.001 0.000976562v72c-26 -31.333 -52.333 -53.5 -79 -66.5s-56.667 -19.5 -90 -19.5c-62 0 -108.667 17.667 -140 53c-28 32 -42 76.333 -42 133v346h60v-341c0 -91.333 44.333 -137 133 -137c50.667 0 90.334 19.667 119.001 59
c26 35.333 39 79.666 39 132.999v286h60v-518z" />
    <glyph glyph-name="v" unicode="v" horiz-adv-x="500" 
d="M483 518l-201 -518h-67l-198 518h65l168 -444l168 444h65z" />
    <glyph glyph-name="w" unicode="w" horiz-adv-x="722" 
d="M707 518l-168 -518h-64l-113 435l-117 -435h-72l-158 518h60l134 -442l120 442h67l114 -438l136 438h61z" />
    <glyph glyph-name="x" unicode="x" horiz-adv-x="500" 
d="M481 0h-72l-157 224l-161 -224h-73l199 268l-183 250h74l143 -206l147 206h76l-187 -250z" />
    <glyph glyph-name="y" unicode="y" horiz-adv-x="500" 
d="M482 518l-195 -516.001c-51.333 -137.333 -105.666 -206 -162.999 -206c-12 0 -23.167 1 -33.5 3s-17.833 3.33301 -22.5 4v56c7.33301 -1.33301 15.166 -2.66602 23.499 -3.99902s16.5 -2 24.5 -2c27.333 0 49 15.333 65 46c16 42.667 28.667 75 38 97l-201 522h67
l166 -445l166 445h65z" />
    <glyph glyph-name="z" unicode="z" horiz-adv-x="500" 
d="M467 0h-434v53l344 415h-321v50h398v-53l-344 -415h357v-50z" />
    <glyph glyph-name="braceleft" unicode="{" horiz-adv-x="333" 
d="M127 -50l0.000976562 207c0 34 -5 59.333 -15 76c-12.667 20.667 -35 34 -67 40c33.333 11.333 55.333 24.666 66 39.999s16 42.333 16 81v192c0 60.667 11.167 101.334 33.5 122.001s61.833 31 118.5 31c-33.333 -10 -57 -27 -71 -51
c-11.333 -19.333 -17 -44.333 -17 -75v-193c0 -41.333 -5 -72.333 -15 -93c-12.667 -26 -35 -43.333 -67 -52c29.333 -7.33301 50.333 -21 63 -41s19 -50.667 19 -92v-207c0 -32.667 5 -57.667 15 -75c13.333 -22.667 37.666 -39 72.999 -49
c-55.333 -1.33301 -94.5 8 -117.5 28s-34.5 57 -34.5 111z" />
    <glyph glyph-name="bar" unicode="|" horiz-adv-x="222" 
d="M141 0h-60v739h60v-739z" />
    <glyph glyph-name="braceright" unicode="}" horiz-adv-x="333" 
d="M203 158l-0.000976562 -192c0 -60.667 -11.167 -101.334 -33.5 -122.001s-61.833 -31 -118.5 -31c33.333 10 57 27 71 51c11.333 19.333 17 44.333 17 75v193c0 41.333 5 72.333 15 93c12.667 26 35 43.333 67 52c-29.333 7.33301 -50.333 21 -63 41s-19 50.667 -19 92
v207c0 32.667 -5 57.667 -15 75c-13.333 22.667 -37.666 39 -72.999 49c55.333 1.33301 94.5 -8 117.5 -28s34.5 -57 34.5 -111v-207c0 -34 5 -59.333 15 -76c12.667 -20.667 35 -34 67 -40c-33.333 -11.333 -55.333 -24.666 -66 -39.999s-16 -42.333 -16 -81z" />
    <glyph glyph-name="asciitilde" unicode="~" horiz-adv-x="660" 
d="M580 305c-38 -72.667 -84.001 -109 -138.001 -109c-18 0 -38.667 4 -62 12c-5.33301 2 -28.666 11.333 -69.999 28l-56 26c-10.667 4 -21.667 6 -33 6c-20.667 0 -39 -7.33301 -55 -22s-33.667 -38.667 -53 -72l-33 47c30 43.333 55 71.333 75 84s42 19 66 19
s53.333 -7.33301 88 -22c79.333 -33.333 123.333 -50 132 -50c15.333 0 30.333 5.66699 45 17c19.333 14.667 37.333 38 54 70z" />
    <glyph glyph-name="nonbreakingspace" unicode="&#xa0;" horiz-adv-x="500" 
 />
    <glyph glyph-name="exclamdown" unicode="&#xa1;" horiz-adv-x="333" 
d="M203 445h-73v87h73v-87zM203 -187h-73v224l14 315h45l14 -315v-224z" />
    <glyph glyph-name="cent" unicode="&#xa2;" 
d="M506 179c-8.66699 -56.667 -31.6699 -102.334 -69.0029 -137.001c-40.667 -37.333 -92.667 -56 -156 -56c-15.333 0 -26.666 0.5 -33.999 1.5s-18 3.16699 -32 6.5l-45 -135h-47l49 150c-39.333 18.667 -70.333 48.834 -93 90.501s-34 94.167 -34 157.5
c0 85.333 21.833 152.5 65.5 201.5s101.834 73.5 174.501 73.5c19.333 0 38.333 -1.66699 57 -5l40 120h48l-44 -134c32 -12.667 57.5 -33.167 76.5 -61.5s30.833 -60.5 35.5 -96.5h-61c-12.667 45.333 -36 79 -70 101l-135 -409c9.33301 -2 17.5 -3.66699 24.5 -5
s16.167 -2 27.5 -2c43.333 0 78.833 12.5 106.5 37.5s44.834 58.833 51.501 101.5h64zM323.997 473c-13.333 3.33301 -26.667 5 -40 5c-60 0 -105.667 -24.333 -137 -73c-25.333 -40 -38 -89 -38 -147c0 -40.667 6.66699 -78 20 -112s34 -60 62 -78z" />
    <glyph glyph-name="sterling" unicode="&#xa3;" 
d="M530 56c-29.333 -27.333 -57.667 -46.332 -85 -56.999c-23.333 -8.66699 -51.333 -13 -84 -13c-18.667 0 -46.667 7.33301 -84 22s-69.666 22 -96.999 22c-14.667 0 -31 -3 -49 -9c-12.667 -4 -31.667 -12 -57 -24l-35 58c42 30.667 71.667 65.667 89 105
c11.333 25.333 17 50.333 17 75c0 16 -1.83301 31 -5.5 45s-8.83398 28.333 -15.501 43h-99v42h82c-19.333 32.667 -32.666 59 -39.999 79c-9.33301 25.333 -14 51.666 -14 78.999c0 56.667 19.833 101.167 59.5 133.5s94.167 48.5 163.5 48.5c71.333 0 128 -21.333 170 -64
c38 -38.667 57 -86.667 57 -144v-9h-66c0 50 -14.333 89.667 -43 119s-67 44 -115 44c-48.667 0 -87.834 -12.167 -117.501 -36.5s-44.5 -55.833 -44.5 -94.5c0 -28 10.333 -59.667 31 -95l36 -60h166v-42h-151c4 -12 6.83301 -23.333 8.5 -34s2.5 -22.334 2.5 -35.001
c0 -33.333 -9.33301 -66.666 -28 -99.999c-15.333 -27.333 -38 -56.333 -68 -87l3 -2c13.333 7.33301 27.833 13.666 43.5 18.999s31.167 8 46.5 8c29.333 0 68 -9.33301 116 -28c24 -9.33301 45.667 -14 65 -14c16 0 31.333 3.33301 46 10
c19.333 8.66699 40 24.334 62 47.001z" />
    <glyph glyph-name="currency" unicode="&#xa4;" 
d="M529 296c0 -51.333 -16.001 -99.333 -48.001 -144l43 -42l-52 -53l-44 43c-44 -33.333 -95 -50 -153 -50c-52.667 0 -101.667 16.667 -147 50l-44 -43l-52 53l43 42c-16 24 -28 48 -36 72s-12 49.667 -12 77c0 56 16 106 48 150l-43 43l52 53l44 -43
c44 32.667 95.333 49 154 49c27.333 0 52.833 -4.16699 76.5 -12.5s46.834 -20.5 69.501 -36.5l44 43l52 -53l-43 -43c32 -44 48 -95.667 48 -155zM457.999 302c0 49.333 -17.165 91.5 -51.498 126.5s-75.833 52.5 -124.5 52.5c-52.667 0 -96.334 -16.667 -131.001 -50
s-52 -77 -52 -131c0 -48.667 17.333 -90.667 52 -126s77 -53 127 -53c49.333 0 91.666 17.667 126.999 53s53 78 53 128z" />
    <glyph glyph-name="yen" unicode="&#xa5;" 
d="M552 720l-171 -286h111v-54h-144l-38 -66v-42h182v-54h-182v-218h-64v218h-182v54h182v42l-38 66h-144v54h111l-171 286h76l197 -347l202 347h73z" />
    <glyph glyph-name="brokenbar" unicode="&#xa6;" horiz-adv-x="222" 
d="M141 443h-60v296h60v-296zM141 0h-60v296h60v-296z" />
    <glyph glyph-name="section" unicode="&#xa7;" 
d="M508 239c0 -32 -9.66797 -60.668 -29.001 -86.001c-16.667 -21.333 -43.667 -44.333 -81 -69c38.667 -32.667 58 -69 58 -109c0 -47.333 -16.167 -85.166 -48.5 -113.499s-74.833 -42.5 -127.5 -42.5c-53.333 0 -96.666 14.667 -129.999 44
c-37.333 32.667 -56 78.667 -56 138h61c0 -41.333 10.667 -73 32 -95s52.333 -33 93 -33c32 0 58.667 8.66699 80 26s32 40 32 68c0 24.667 -9.5 47.667 -28.5 69s-49.167 45 -90.5 71l-126 79c-35.333 22.667 -60.666 45.667 -75.999 69s-23 49.666 -23 78.999
c0 30 9.5 58.167 28.5 84.5s45.167 46.5 78.5 60.5c-16.667 18 -29.667 36.333 -39 55s-14 38.667 -14 60c0 43.333 16.667 78.333 50 105s76.666 40 129.999 40c57.333 0 100.666 -16 129.999 -48s44 -75.667 44 -131h-54c0 38.667 -8.66699 68.334 -26 89.001
c-20 24 -52 36 -96 36c-37.333 0 -65.666 -9 -84.999 -27s-29 -40.667 -29 -68c0 -38.667 29.333 -76.667 88 -114l165 -98c59.333 -42.667 89 -89 89 -139zM453.999 228.999c0 19.333 -6.33203 37.5 -18.999 54.5s-33.334 34.167 -62.001 51.5l-183 112
c-27.333 -11.333 -48.833 -25.5 -64.5 -42.5s-23.5 -37.5 -23.5 -61.5c0 -38 29.333 -75.667 88 -113l175 -113c28 14.667 49.833 31.5 65.5 50.5s23.5 39.5 23.5 61.5z" />
    <glyph glyph-name="dieresis" unicode="&#xa8;" horiz-adv-x="333" 
d="M284 584h-65v102h65v-102zM125 584h-65v102h65v-102z" />
    <glyph glyph-name="copyright" unicode="&#xa9;" horiz-adv-x="800" 
d="M779 360c0 -104.667 -36.6689 -194 -110.002 -268s-162.666 -111 -267.999 -111s-195 37 -269 111s-111 163.333 -111 268s37 194 111 268s163.667 111 269 111c104.667 0 193.834 -36.833 267.501 -110.5s110.5 -163.167 110.5 -268.5zM718.998 360
c0 92.667 -30 170.667 -90 234s-136 95 -228 95c-92.667 0 -169.167 -31.5 -229.5 -94.5s-90.5 -141.167 -90.5 -234.5c0 -92.667 30.333 -170.667 91 -234s137 -95 229 -95s168 31.667 228 95s90 141.333 90 234zM592.998 292c0 -41.333 -17.168 -76.165 -51.501 -104.498
s-75.166 -42.5 -122.499 -42.5c-61.333 0 -111.833 20.167 -151.5 60.5s-59.5 93.5 -59.5 159.5c0 63.333 18.5 115.166 55.5 155.499s87.833 60.5 152.5 60.5c48 0 87.833 -13 119.5 -39s50.834 -60.667 57.501 -104h-54c-5.33301 29.333 -19.333 53.166 -42 71.499
s-49.334 27.5 -80.001 27.5c-48.667 0 -86 -16.167 -112 -48.5s-39 -73.5 -39 -123.5c0 -52 14.333 -94.333 43 -127s64.667 -49 108 -49c31.333 0 58.5 9.5 81.5 28.5s36.5 43.833 40.5 74.5h54z" />
    <glyph glyph-name="ordfeminine" unicode="&#xaa;" horiz-adv-x="334" 
d="M325 421c-11.333 -4 -21.667 -6 -31 -6c-17.333 0 -29.833 3.5 -37.5 10.5s-11.5 19.5 -11.5 37.5c-14.667 -16 -32.334 -28.667 -53.001 -38s-44.667 -14 -72 -14c-32 0 -58.667 7.83301 -80 23.5s-32 37.167 -32 64.5c0 18.667 4.16699 34 12.5 46
s20.833 22.333 37.5 31s47.834 15.667 93.501 21s72.667 10.333 81 15s12.5 14.667 12.5 30c0 20.667 -6.66699 37 -20 49s-34.333 18 -63 18c-60 0 -93 -24.333 -99 -73h-40c2.66699 34 16.167 59.667 40.5 77s57.166 26 98.499 26c81.333 0 122 -32 122 -96v-174
c0 -12 2.66699 -19.667 8 -23c2 -1.33301 5.33301 -2 10 -2c6.66699 0 14.334 1.66699 23.001 5v-28zM324.999 307h-317v39h317v-39zM244.999 533l-0.00292969 50c-15.333 -6 -36.333 -10.667 -63 -14c-55.333 -6 -88.666 -12 -99.999 -18c-23.333 -12 -35 -29.333 -35 -52
c0 -17.333 6.83301 -31.333 20.5 -42s31.834 -16 54.501 -16c36.667 0 66.334 8.33301 89.001 25s34 39 34 67z" />
    <glyph glyph-name="guillemotleft" unicode="&#xab;" 
d="M443 117l-146 111v63l146 113v-63l-104 -82l104 -80v-62zM259 117l-146 111v63l146 113v-63l-104 -82l104 -80v-62z" />
    <glyph glyph-name="logicalnot" unicode="&#xac;" horiz-adv-x="660" 
d="M580 112h-64v206h-436v60h500v-266z" />
    <glyph glyph-name="minus" unicode="&#xad;" horiz-adv-x="660" 
d="M580 220h-500v60h500v-60z" />
    <glyph glyph-name="registered" unicode="&#xae;" horiz-adv-x="800" 
d="M779 360c0 -104.667 -36.6689 -194 -110.002 -268s-162.666 -111 -267.999 -111s-195 37 -269 111s-111 163.333 -111 268s37 194 111 268s163.667 111 269 111c104.667 0 193.834 -36.833 267.501 -110.5s110.5 -163.167 110.5 -268.5zM718.998 360
c0 92.667 -30 170.667 -90 234s-136 95 -228 95c-92.667 0 -169.167 -31.5 -229.5 -94.5s-90.5 -141.167 -90.5 -234.5c0 -92.667 30.333 -170.667 91 -234s137 -95 229 -95s168 31.667 228 95s90 141.333 90 234zM594.998 459c0 -34 -10 -61 -30 -81
c-22.667 -22.667 -57 -34 -103 -34l128 -195h-62l-121 195h-95v-195h-52v423h187c50.667 0 88 -9 112 -27s36 -46.667 36 -86zM538.998 462c0 48.667 -34.668 73 -104.001 73h-123v-150h128c36.667 0 62.334 6.83301 77.001 20.5s22 32.5 22 56.5z" />
    <glyph glyph-name="macron" unicode="&#xaf;" horiz-adv-x="333" 
d="M319 612h-296v45h296v-45z" />
    <glyph glyph-name="degree" unicode="&#xb0;" horiz-adv-x="400" 
d="M350 555c0 -41.333 -14.667 -76.665 -44 -105.998s-64.666 -44 -105.999 -44s-76.666 14.667 -105.999 44s-44 64.666 -44 105.999s14.667 76.666 44 105.999s64.666 44 105.999 44s76.666 -15 105.999 -45s44 -65 44 -105zM310 555.001c0 29.333 -10.667 55 -32 77
s-47.333 33 -78 33s-56.667 -10.667 -78 -32s-32 -47.333 -32 -78s10.667 -56.667 32 -78s47.333 -32 78 -32s56.667 10.667 78 32s32 47.333 32 78z" />
    <glyph glyph-name="plusminus" unicode="&#xb1;" horiz-adv-x="660" 
d="M580 270h-220v-170h-60v170h-220v60h220v170h60v-170h220v-60zM580 0h-500v60h500v-60z" />
    <glyph glyph-name="twosuperior" unicode="&#xb2;" horiz-adv-x="333" 
d="M318 623c0 -18.667 -2.83301 -34.832 -8.5 -48.499s-16.5 -28.5 -32.5 -44.5c-13.333 -13.333 -53 -37.666 -119 -72.999c-31.333 -16.667 -54.666 -32.667 -69.999 -48c-10.667 -10.667 -18.167 -20.334 -22.5 -29.001s-6.5 -19.334 -6.5 -32.001h255v-32h-299
c0 24.667 2.83301 45.167 8.5 61.5s16.167 32.166 31.5 47.499c22.667 22.667 66 52 130 88c28.667 16 48.334 29.333 59.001 40s18.167 21.334 22.5 32.001s6.5 23 6.5 37c0 26 -9.66699 46.667 -29 62s-43 23 -71 23c-27.333 0 -51 -9.66699 -71 -29s-30 -45.333 -30 -78
h-44c0 46 15.333 81.333 46 106c27.333 22 61.666 33 102.999 33s75.166 -10.5 101.499 -31.5s39.5 -49.167 39.5 -84.5z" />
    <glyph glyph-name="threesuperior" unicode="&#xb3;" horiz-adv-x="333" 
d="M322 435c0 -37.333 -13.8311 -67.834 -41.498 -91.501s-64.5 -35.5 -110.5 -35.5c-40 0 -72.333 6 -97 18c-17.333 8.66699 -31.333 21.834 -42 39.501s-17.334 41.834 -20.001 72.501h42c0 -32 10.667 -56.333 32 -73s48.666 -25 81.999 -25c31.333 0 58 9 80 27
s33 39.333 33 64c0 28.667 -10.333 50.667 -31 66s-49 23 -85 23h-31v31c46.667 0 80.167 6.66699 100.5 20s30.5 33.666 30.5 60.999c0 22.667 -8.5 40.834 -25.5 54.501s-40.833 20.5 -71.5 20.5c-28.667 0 -52.334 -7.83301 -71.001 -23.5s-28 -38.167 -28 -67.5h-41
c0 22.667 5.33301 43.667 16 63s26.667 34.333 48 45c11.333 5.33301 23.333 9.16602 36 11.499s28.334 3.5 47.001 3.5c39.333 0 71.166 -9.16699 95.499 -27.5s36.5 -43.166 36.5 -74.499c0 -22.667 -4.83301 -42 -14.5 -58s-26.5 -29 -50.5 -39
c26.667 -8 46.834 -20.333 60.501 -37s20.5 -39.334 20.5 -68.001z" />
    <glyph glyph-name="acute" unicode="&#xb4;" horiz-adv-x="333" 
d="M297 713l-137 -139h-51l111 139h77z" />
    <glyph glyph-name="mu" unicode="&#xb5;" 
d="M483 0h-60v72c-26 -31.333 -52.5 -53.5 -79.5 -66.5s-56.167 -19.5 -87.5 -19.5c-25.333 0 -47.833 2.66699 -67.5 8s-38.5 13.333 -56.5 24v-222h-60v722h60v-340c0 -50.667 12.667 -87 38 -109c22 -19.333 53.667 -29 95 -29c50 0 89.333 19.333 118 58
c26.667 36 40 81.333 40 136v284h60v-518z" />
    <glyph glyph-name="paragraph" unicode="&#xb6;" horiz-adv-x="650" 
d="M506 -146l-60 -0.000976562v799h-128v-799h-60v482h-5c-46.667 0 -88.667 17.667 -126 53c-40.667 38.667 -61 85.334 -61 140.001c0 58.667 19.167 105.167 57.5 139.5s92.833 51.5 163.5 51.5h219v-866z" />
    <glyph glyph-name="periodcentered" unicode="&#xb7;" horiz-adv-x="278" 
d="M187 350c0 -13.333 -4.5 -24.8311 -13.5 -34.498s-20.167 -14.5 -33.5 -14.5s-25 4.66699 -35 14s-15 20.666 -15 33.999s4.83301 24.833 14.5 34.5s21.5 14.5 35.5 14.5c13.333 0 24.5 -4.83301 33.5 -14.5s13.5 -20.834 13.5 -33.501z" />
    <glyph glyph-name="periodcentered" unicode="&#x2219;" horiz-adv-x="278" 
d="M187 350c0 -13.333 -4.5 -24.8311 -13.5 -34.498s-20.167 -14.5 -33.5 -14.5s-25 4.66699 -35 14s-15 20.666 -15 33.999s4.83301 24.833 14.5 34.5s21.5 14.5 35.5 14.5c13.333 0 24.5 -4.83301 33.5 -14.5s13.5 -20.834 13.5 -33.501z" />
    <glyph glyph-name="cedilla" unicode="&#xb8;" horiz-adv-x="333" 
d="M257 -122c0 -30 -12.332 -52.332 -36.999 -66.999c-20 -12 -46.333 -18 -79 -18c-14.667 0 -29.167 1.66699 -43.5 5s-28.833 8 -43.5 14l15 30c29.333 -10 50.666 -15 63.999 -15c18 0 33.5 4 46.5 12s19.5 19.333 19.5 34c0 12.667 -4.83301 22.5 -14.5 29.5
s-21.5 10.5 -35.5 10.5c-12 0 -26.667 -2.66699 -44 -8l-15 13l60 82h39l-47 -59c14 4 26.333 6 37 6c20 0 38 -5.83301 54 -17.5s24 -28.834 24 -51.501z" />
    <glyph glyph-name="onesuperior" unicode="&#xb9;" horiz-adv-x="333" 
d="M247 316h-42v314h-118v26c40 0 69.667 5.66699 89 17s32 33.333 38 66h33v-423z" />
    <glyph glyph-name="ordmasculine" unicode="&#xba;" horiz-adv-x="334" 
d="M323 574c0 -47.333 -14 -86.334 -42 -117.001s-65 -46 -111 -46c-48 0 -86.5 14.5 -115.5 43.5s-43.5 69.167 -43.5 120.5c0 48.667 13.833 88.167 41.5 118.5s66.167 45.5 115.5 45.5c50 0 88.333 -15.167 115 -45.5s40 -70.166 40 -119.499zM323 306.999h-312v39h312
v-39zM284 574.999c0 43.333 -10.167 76.5 -30.5 99.5s-48.833 34.5 -85.5 34.5c-36 0 -64.667 -12 -86 -36s-32 -57 -32 -99c0 -40 10.5 -72.167 31.5 -96.5s49.833 -36.5 86.5 -36.5c34.667 0 62.667 12.333 84 37s32 57 32 97z" />
    <glyph glyph-name="guillemotright" unicode="&#xbb;" 
d="M443 230l-146 -113v63l104 82l-104 80v62l146 -111v-63zM259 230l-146 -113v63l104 82l-104 80v62l146 -111v-63z" />
    <glyph glyph-name="onequarter" unicode="&#xbc;" horiz-adv-x="834" 
d="M794 104h-63v-104h-42v104h-209v33l213 282h38v-282h63v-33zM663 705l-444 -719h-51l444 719h51zM200 316h-42v314h-118v26c40 0 69.667 5.66699 89 17s32 33.333 38 66h33v-423zM689 137v224l-168 -224h168z" />
    <glyph glyph-name="onehalf" unicode="&#xbd;" horiz-adv-x="834" 
d="M794 307c0 -18.667 -2.83301 -34.832 -8.5 -48.499s-16.5 -28.5 -32.5 -44.5c-13.333 -13.333 -53 -37.666 -119 -72.999c-31.333 -16.667 -54.666 -32.667 -69.999 -48c-10.667 -10.667 -18.167 -20.334 -22.5 -29.001s-6.5 -19.334 -6.5 -32.001h255v-32h-299
c0 24.667 2.83301 45.167 8.5 61.5s16.167 32.166 31.5 47.499c22.667 22.667 66 52 130 88c28.667 16 48.334 29.333 59.001 40s18.167 21.334 22.5 32.001s6.5 23 6.5 37c0 26 -9.66699 46.667 -29 62s-43 23 -71 23c-27.333 0 -51 -9.66699 -71 -29s-30 -45.333 -30 -78
h-44c0 46 15.333 81.333 46 106c27.333 22 61.666 33 102.999 33s75.166 -10.5 101.499 -31.5s39.5 -49.167 39.5 -84.5zM623 705.002l-444 -719h-51l444 719h51zM200 316.002h-42v314h-118v26c40 0 69.667 5.66699 89 17s32 33.333 38 66h33v-423z" />
    <glyph glyph-name="threequarters" unicode="&#xbe;" horiz-adv-x="834" 
d="M794 104h-63v-104h-42v104h-209v33l213 282h38v-282h63v-33zM703 705l-444 -719h-51l444 719h51zM351 435c0 -37.333 -13.8311 -67.834 -41.498 -91.501s-64.5 -35.5 -110.5 -35.5c-40 0 -72.333 6 -97 18c-17.333 8.66699 -31.333 21.834 -42 39.501
s-17.334 41.834 -20.001 72.501h42c0 -32 10.667 -56.333 32 -73s48.666 -25 81.999 -25c31.333 0 58 9 80 27s33 39.333 33 64c0 28.667 -10.333 50.667 -31 66s-49 23 -85 23h-31v31c46.667 0 80.167 6.66699 100.5 20s30.5 33.666 30.5 60.999
c0 22.667 -8.5 40.834 -25.5 54.501s-40.833 20.5 -71.5 20.5c-28.667 0 -52.334 -7.83301 -71.001 -23.5s-28 -38.167 -28 -67.5h-41c0 22.667 5.33301 43.667 16 63s26.667 34.333 48 45c11.333 5.33301 23.333 9.16602 36 11.499s28.334 3.5 47.001 3.5
c39.333 0 71.166 -9.16699 95.499 -27.5s36.5 -43.166 36.5 -74.499c0 -22.667 -4.83301 -42 -14.5 -58s-26.5 -29 -50.5 -39c26.667 -8 46.834 -20.333 60.501 -37s20.5 -39.334 20.5 -68.001zM689.002 136.999v224l-168 -224h168z" />
    <glyph glyph-name="questiondown" unicode="&#xbf;" horiz-adv-x="500" 
d="M290 444h-73v88h73v-88zM462 -8c0 -57.333 -20.1689 -104.833 -60.502 -142.5s-92.166 -56.5 -155.499 -56.5c-66 0 -118.833 16.333 -158.5 49s-59.5 79 -59.5 139c0 26 5 48.667 15 68s28.333 42.333 55 69l65 62c24.667 24.667 41.334 47.334 50.001 68.001
s13 47 13 79v23h58v-31c0 -36 -4.5 -66.167 -13.5 -90.5s-25.5 -48.5 -49.5 -72.5l-85 -84c-29.333 -34 -44 -66.333 -44 -97c0 -37.333 14.333 -68 43 -92s65 -36 109 -36c52 0 92 16.667 120 50c24.667 29.333 37 65.666 37 108.999v10h61v-24z" />
    <glyph glyph-name="Agrave" unicode="&#xc0;" horiz-adv-x="667" 
d="M651 0h-70l-83 226h-328l-85 -226h-70l283 720h77zM475 284l-141 378l-141 -378h282zM401 776h-51l-138 139h78z" />
    <glyph glyph-name="Aacute" unicode="&#xc1;" horiz-adv-x="667" 
d="M651 0h-70l-83 226h-328l-85 -226h-70l283 720h77zM475 284l-141 378l-141 -378h282zM464 915l-137 -139h-51l111 139h77z" />
    <glyph glyph-name="Acircumflex" unicode="&#xc2;" horiz-adv-x="667" 
d="M651 0h-70l-83 226h-328l-85 -226h-70l283 720h77zM475 284l-141 378l-141 -378h282zM485 776h-65l-82 102l-82 -102h-65l114 139h67z" />
    <glyph glyph-name="Atilde" unicode="&#xc3;" horiz-adv-x="667" 
d="M651 0h-70l-83 226h-328l-85 -226h-70l283 720h77zM475 284l-141 378l-141 -378h282zM496 890c-2.66699 -28 -11.333 -51.333 -26 -70s-33.334 -28 -56.001 -28c-19.333 0 -45 7.5 -77 22.5s-54.667 22.5 -68 22.5c-12 0 -22 -3.66699 -30 -11s-14.667 -20 -20 -38h-36
c0 26.667 8.83301 49.5 26.5 68.5s39.167 28.5 64.5 28.5c15.333 0 39.333 -7.5 72 -22.5s55.334 -22.5 68.001 -22.5c10.667 0 19.667 3.66699 27 11s13 20.333 17 39h38z" />
    <glyph glyph-name="Adieresis" unicode="&#xc4;" horiz-adv-x="667" 
d="M651 0h-70l-83 226h-328l-85 -226h-70l283 720h77zM475 284l-141 378l-141 -378h282zM451 786h-65v102h65v-102zM292 786h-65v102h65v-102z" />
    <glyph glyph-name="Aring" unicode="&#xc5;" horiz-adv-x="667" 
d="M651 0h-70l-83 226h-328l-85 -226h-70l283 720h77zM475 284l-141 378l-141 -378h282zM453 879c0 -27.333 -9.66699 -50.667 -29 -70s-42.666 -29 -69.999 -29c-26.667 0 -50 9.66699 -70 29s-30 42.333 -30 69c0 27.333 9.66699 51 29 71s43 30 71 30
c27.333 0 50.666 -9.66699 69.999 -29s29 -43 29 -71zM420 878.999c0 18 -6.33105 33.667 -18.998 47s-28.334 20 -47.001 20c-18 0 -33.667 -6.66699 -47 -20s-20 -29 -20 -47c0 -17.333 6.66699 -32.666 20 -45.999s29 -20 47 -20c17.333 0 32.666 6.66699 45.999 20
s20 28.666 20 45.999z" />
    <glyph glyph-name="AE" unicode="&#xc6;" horiz-adv-x="1000" 
d="M960 0h-488v226h-303l-96 -226h-68l313 720h630v-58h-408v-260h371v-58h-371v-286h420v-58zM472 284v378h-114l-161 -378h275z" />
    <glyph glyph-name="Ccedilla" unicode="&#xc7;" horiz-adv-x="722" 
d="M670 237c-40 -170.667 -143.998 -256.001 -311.998 -256.001c-108 0 -189 39.667 -243 119c-44.667 66 -67 152 -67 258c0 134.667 33.333 234.334 100 299.001c56.667 54.667 134.667 82 234 82c68 0 125.667 -15.667 173 -47c58 -38.667 93.667 -99 107 -181h-70
c-13.333 62.667 -41 107.667 -83 135c-35.333 23.333 -82.666 35 -141.999 35c-82.667 0 -146.334 -31.667 -191.001 -95c-40 -57.333 -60 -132.333 -60 -225c0 -90.667 17.667 -163.667 53 -219c44 -68.667 111.667 -103 203 -103c51.333 0 95.666 14 132.999 42
c45.333 34 76.666 86 93.999 156h71zM452.002 -122.001c0 -30 -12.332 -52.332 -36.999 -66.999c-20 -12 -46.333 -18 -79 -18c-14.667 0 -29.167 1.66699 -43.5 5s-28.833 8 -43.5 14l15 30c29.333 -10 50.666 -15 63.999 -15c18 0 33.5 4 46.5 12s19.5 19.333 19.5 34
c0 12.667 -4.83301 22.5 -14.5 29.5s-21.5 10.5 -35.5 10.5c-12 0 -26.667 -2.66699 -44 -8l-15 13l60 82h39l-47 -59c14 4 26.333 6 37 6c20 0 38 -5.83301 54 -17.5s24 -28.834 24 -51.501z" />
    <glyph glyph-name="Egrave" unicode="&#xc8;" horiz-adv-x="611" 
d="M570 0h-489v720h479v-58h-411v-260h371v-58h-371v-286h421v-58zM373 776h-51l-138 139h78z" />
    <glyph glyph-name="Eacute" unicode="&#xc9;" horiz-adv-x="611" 
d="M570 0h-489v720h479v-58h-411v-260h371v-58h-371v-286h421v-58zM436 915l-137 -139h-51l111 139h77z" />
    <glyph glyph-name="Ecircumflex" unicode="&#xca;" horiz-adv-x="611" 
d="M570 0h-489v720h479v-58h-411v-260h371v-58h-371v-286h421v-58zM457 776h-65l-82 102l-82 -102h-65l114 139h67z" />
    <glyph glyph-name="Edieresis" unicode="&#xcb;" horiz-adv-x="611" 
d="M570 0h-489v720h479v-58h-411v-260h371v-58h-371v-286h421v-58zM423 786h-65v102h65v-102zM264 786h-65v102h65v-102z" />
    <glyph glyph-name="Igrave" unicode="&#xcc;" horiz-adv-x="278" 
d="M173 0h-68v720h68v-720zM207 776h-51l-138 139h78z" />
    <glyph glyph-name="Iacute" unicode="&#xcd;" horiz-adv-x="278" 
d="M173 0h-68v720h68v-720zM250 915l-137 -139h-51l111 139h77z" />
    <glyph glyph-name="Icircumflex" unicode="&#xce;" horiz-adv-x="278" 
d="M173 0h-68v720h68v-720zM271 776h-65l-82 102l-82 -102h-65l114 139h67z" />
    <glyph glyph-name="Idieresis" unicode="&#xcf;" horiz-adv-x="278" 
d="M173 0h-68v720h68v-720zM237 786h-65v102h65v-102zM78 786h-65v102h65v-102z" />
    <glyph glyph-name="Eth" unicode="&#xd0;" horiz-adv-x="722" 
d="M669 361c0 -124.667 -32.333 -219.334 -97 -284.001c-26 -26 -58.167 -45.333 -96.5 -58s-86.5 -19 -144.5 -19h-250v353h-71v58h71v309h257c54.667 0 101 -5.83301 139 -17.5s71.667 -32.167 101 -61.5c27.333 -27.333 49.333 -66.666 66 -117.999s25 -105.333 25 -162z
M601 361c0 54.667 -6.33496 101.833 -19.002 141.5s-31.167 71.667 -55.5 96s-52.5 41 -84.5 50s-74.333 13.5 -127 13.5h-166v-251h121v-58h-121v-295h176c46.667 0 86.334 5.5 119.001 16.5s59.334 26.833 80.001 47.5c26.667 26.667 46.167 60.167 58.5 100.5
s18.5 86.5 18.5 138.5z" />
    <glyph glyph-name="Ntilde" unicode="&#xd1;" horiz-adv-x="722" 
d="M642 0h-79l-414 628l-2 -628h-68v720h77l416 -629l2 629h68v-720zM524 890c-2.66699 -28 -11.333 -51.333 -26 -70s-33.334 -28 -56.001 -28c-19.333 0 -45 7.5 -77 22.5s-54.667 22.5 -68 22.5c-12 0 -22 -3.66699 -30 -11s-14.667 -20 -20 -38h-36
c0 26.667 8.83301 49.5 26.5 68.5s39.167 28.5 64.5 28.5c15.333 0 39.333 -7.5 72 -22.5s55.334 -22.5 68.001 -22.5c10.667 0 19.667 3.66699 27 11s13 20.333 17 39h38z" />
    <glyph glyph-name="Ograve" unicode="&#xd2;" horiz-adv-x="778" 
d="M724 359c0 -104.667 -26 -191 -78 -259c-60.667 -79.333 -146.667 -119 -258 -119c-102.667 0 -184.167 34.5 -244.5 103.5s-90.5 161.5 -90.5 277.5c0 107.333 27.667 195.333 83 264c60.667 75.333 144 113 250 113c107.333 0 191.333 -36.667 252 -110
c57.333 -68.667 86 -158.667 86 -270zM656 360c0 98 -23.665 176.002 -70.998 234.002s-113.333 87 -198 87c-85.333 0 -152 -32 -200 -96c-44 -58.667 -66 -133.334 -66 -224.001c0 -92.667 20.333 -167.334 61 -224.001c47.333 -65.333 116.666 -98 207.999 -98
c89.333 0 157.666 33.333 204.999 100c40.667 57.333 61 131 61 221zM457.002 776.002h-51l-138 139h78z" />
    <glyph glyph-name="Oacute" unicode="&#xd3;" horiz-adv-x="778" 
d="M724 359c0 -104.667 -26 -191 -78 -259c-60.667 -79.333 -146.667 -119 -258 -119c-102.667 0 -184.167 34.5 -244.5 103.5s-90.5 161.5 -90.5 277.5c0 107.333 27.667 195.333 83 264c60.667 75.333 144 113 250 113c107.333 0 191.333 -36.667 252 -110
c57.333 -68.667 86 -158.667 86 -270zM656 360c0 98 -23.665 176.002 -70.998 234.002s-113.333 87 -198 87c-85.333 0 -152 -32 -200 -96c-44 -58.667 -66 -133.334 -66 -224.001c0 -92.667 20.333 -167.334 61 -224.001c47.333 -65.333 116.666 -98 207.999 -98
c89.333 0 157.666 33.333 204.999 100c40.667 57.333 61 131 61 221zM520.002 915.002l-137 -139h-51l111 139h77z" />
    <glyph glyph-name="Ocircumflex" unicode="&#xd4;" horiz-adv-x="778" 
d="M724 359c0 -104.667 -26 -191 -78 -259c-60.667 -79.333 -146.667 -119 -258 -119c-102.667 0 -184.167 34.5 -244.5 103.5s-90.5 161.5 -90.5 277.5c0 107.333 27.667 195.333 83 264c60.667 75.333 144 113 250 113c107.333 0 191.333 -36.667 252 -110
c57.333 -68.667 86 -158.667 86 -270zM656 360c0 98 -23.665 176.002 -70.998 234.002s-113.333 87 -198 87c-85.333 0 -152 -32 -200 -96c-44 -58.667 -66 -133.334 -66 -224.001c0 -92.667 20.333 -167.334 61 -224.001c47.333 -65.333 116.666 -98 207.999 -98
c89.333 0 157.666 33.333 204.999 100c40.667 57.333 61 131 61 221zM541.002 776.002h-65l-82 102l-82 -102h-65l114 139h67z" />
    <glyph glyph-name="Otilde" unicode="&#xd5;" horiz-adv-x="778" 
d="M724 359c0 -104.667 -26 -191 -78 -259c-60.667 -79.333 -146.667 -119 -258 -119c-102.667 0 -184.167 34.5 -244.5 103.5s-90.5 161.5 -90.5 277.5c0 107.333 27.667 195.333 83 264c60.667 75.333 144 113 250 113c107.333 0 191.333 -36.667 252 -110
c57.333 -68.667 86 -158.667 86 -270zM656 360c0 98 -23.665 176.002 -70.998 234.002s-113.333 87 -198 87c-85.333 0 -152 -32 -200 -96c-44 -58.667 -66 -133.334 -66 -224.001c0 -92.667 20.333 -167.334 61 -224.001c47.333 -65.333 116.666 -98 207.999 -98
c89.333 0 157.666 33.333 204.999 100c40.667 57.333 61 131 61 221zM552.002 890.002c-2.66699 -28 -11.333 -51.333 -26 -70s-33.334 -28 -56.001 -28c-19.333 0 -45 7.5 -77 22.5s-54.667 22.5 -68 22.5c-12 0 -22 -3.66699 -30 -11s-14.667 -20 -20 -38h-36
c0 26.667 8.83301 49.5 26.5 68.5s39.167 28.5 64.5 28.5c15.333 0 39.333 -7.5 72 -22.5s55.334 -22.5 68.001 -22.5c10.667 0 19.667 3.66699 27 11s13 20.333 17 39h38z" />
    <glyph glyph-name="Odieresis" unicode="&#xd6;" horiz-adv-x="778" 
d="M724 359c0 -104.667 -26 -191 -78 -259c-60.667 -79.333 -146.667 -119 -258 -119c-102.667 0 -184.167 34.5 -244.5 103.5s-90.5 161.5 -90.5 277.5c0 107.333 27.667 195.333 83 264c60.667 75.333 144 113 250 113c107.333 0 191.333 -36.667 252 -110
c57.333 -68.667 86 -158.667 86 -270zM656 360c0 98 -23.665 176.002 -70.998 234.002s-113.333 87 -198 87c-85.333 0 -152 -32 -200 -96c-44 -58.667 -66 -133.334 -66 -224.001c0 -92.667 20.333 -167.334 61 -224.001c47.333 -65.333 116.666 -98 207.999 -98
c89.333 0 157.666 33.333 204.999 100c40.667 57.333 61 131 61 221zM507.002 786.002h-65v102h65v-102zM348.002 786.002h-65v102h65v-102z" />
    <glyph glyph-name="multiply" unicode="&#xd7;" horiz-adv-x="660" 
d="M578 42l-37 -36l-210 210l-211 -210l-37 36l211 211l-211 211l37 36l211 -210l210 210l37 -36l-210 -211z" />
    <glyph glyph-name="Oslash" unicode="&#xd8;" horiz-adv-x="778" 
d="M736 712l-86.999 -100c23.333 -26.667 41.166 -62.5 53.499 -107.5s18.5 -93.5 18.5 -145.5c0 -104.667 -26 -191 -78 -259c-60.667 -79.333 -146.667 -119 -258 -119c-44.667 0 -85.167 6.66699 -121.5 20s-68.833 33 -97.5 59l-85 -97l-39 34l89 101
c-54 69.333 -81 157.333 -81 264s28 194.667 84 264c61.333 75.333 144.333 113 249 113c47.333 0 90.5 -7.5 129.5 -22.5s72.833 -36.5 101.5 -64.5l83 95zM572.001 604c-46 51.333 -108.667 77.001 -188 77.001c-85.333 0 -152 -32 -200 -96
c-44 -58.667 -66 -133.334 -66 -224.001c0 -41.333 4.5 -80 13.5 -116s23.167 -68.667 42.5 -98zM653.001 360.001c0 40.667 -4.16504 77.5 -12.498 110.5s-20.5 62.833 -36.5 89.5l-397 -453c21.333 -21.333 47.166 -38 77.499 -50s64.5 -18 102.5 -18
c89.333 0 157.666 33.333 204.999 100c40.667 57.333 61 131 61 221z" />
    <glyph glyph-name="Ugrave" unicode="&#xd9;" horiz-adv-x="722" 
d="M640 272c0 -97.333 -24.167 -170.167 -72.5 -218.5s-116.833 -72.5 -205.5 -72.5c-85.333 0 -151.666 21.333 -198.999 64c-54 48.667 -81 124 -81 226v449h68v-432c0 -88 17.167 -151.5 51.5 -190.5s87.166 -58.5 158.499 -58.5c70.667 0 122.667 17.333 156 52
c37.333 39.333 56 104 56 194v435h68v-448zM429 775.999h-51l-138 139h78z" />
    <glyph glyph-name="Uacute" unicode="&#xda;" horiz-adv-x="722" 
d="M640 272c0 -97.333 -24.167 -170.167 -72.5 -218.5s-116.833 -72.5 -205.5 -72.5c-85.333 0 -151.666 21.333 -198.999 64c-54 48.667 -81 124 -81 226v449h68v-432c0 -88 17.167 -151.5 51.5 -190.5s87.166 -58.5 158.499 -58.5c70.667 0 122.667 17.333 156 52
c37.333 39.333 56 104 56 194v435h68v-448zM492 914.999l-137 -139h-51l111 139h77z" />
    <glyph glyph-name="Ucircumflex" unicode="&#xdb;" horiz-adv-x="722" 
d="M640 272c0 -97.333 -24.167 -170.167 -72.5 -218.5s-116.833 -72.5 -205.5 -72.5c-85.333 0 -151.666 21.333 -198.999 64c-54 48.667 -81 124 -81 226v449h68v-432c0 -88 17.167 -151.5 51.5 -190.5s87.166 -58.5 158.499 -58.5c70.667 0 122.667 17.333 156 52
c37.333 39.333 56 104 56 194v435h68v-448zM513 775.999h-65l-82 102l-82 -102h-65l114 139h67z" />
    <glyph glyph-name="Udieresis" unicode="&#xdc;" horiz-adv-x="722" 
d="M640 272c0 -97.333 -24.167 -170.167 -72.5 -218.5s-116.833 -72.5 -205.5 -72.5c-85.333 0 -151.666 21.333 -198.999 64c-54 48.667 -81 124 -81 226v449h68v-432c0 -88 17.167 -151.5 51.5 -190.5s87.166 -58.5 158.499 -58.5c70.667 0 122.667 17.333 156 52
c37.333 39.333 56 104 56 194v435h68v-448zM479 785.999h-65v102h65v-102zM320 785.999h-65v102h65v-102z" />
    <glyph glyph-name="Yacute" unicode="&#xdd;" horiz-adv-x="611" 
d="M598 720l-261 -406v-314h-68v309l-257 411h78l212 -347l217 347h79zM436 915l-137 -139h-51l111 139h77z" />
    <glyph glyph-name="Thorn" unicode="&#xde;" horiz-adv-x="611" 
d="M576 370c0 -70.667 -26.333 -123 -79 -157c-46.667 -30 -113.334 -45 -200.001 -45h-151v-168h-68v720h68v-150h194c86.667 0 149.334 -19.667 188.001 -59c32 -32.667 48 -79.667 48 -141zM508 375c0 91.333 -62.333 136.999 -187 136.999h-175v-286h160
c69.333 0 119.333 10 150 30c34.667 22.667 52 62.334 52 119.001z" />
    <glyph glyph-name="germandbls" unicode="&#xdf;" horiz-adv-x="500" 
d="M459 225c0 -79.333 -19.668 -139.671 -59.001 -181.004c-36.667 -38.667 -88 -58 -154 -58c-12 0 -23.667 1.66699 -35 5v53l37 -3c44.667 0 80.334 14.333 107.001 43s40 67.667 40 117c0 60.667 -14.5 104.834 -43.5 132.501s-75.833 41.5 -140.5 41.5v50
c104.667 0 157 41.333 157 124c0 38.667 -9.33301 69.334 -28 92.001c-21.333 26 -53.666 39 -96.999 39c-49.333 0 -83.5 -10.5 -102.5 -31.5s-28.5 -57.833 -28.5 -110.5v-538h-60v546c0 64.667 16.333 112.167 49 142.5s78.667 45.5 138 45.5
c58 0 104.667 -16.667 140 -50s53 -78.333 53 -135c0 -29.333 -6.5 -55.666 -19.5 -78.999s-34.5 -45.666 -64.5 -66.999c33.333 -11.333 60.166 -33.5 80.499 -66.5s30.5 -70.167 30.5 -111.5z" />
    <glyph glyph-name="agrave" unicode="&#xe0;" 
d="M534 2c-11.333 -4 -19.833 -6.66699 -25.5 -8s-12.834 -2 -21.501 -2c-26 0 -44.333 5 -55 15c-13.333 12 -20 33.667 -20 65c-26.667 -30 -58 -52.333 -94 -67c-31.333 -12.667 -64.333 -19 -99 -19c-49.333 0 -90 12.667 -122 38c-34 27.333 -51 64.333 -51 111
c0 46 17 82.333 51 109c30.667 24 74 39.667 130 47l75 10l45 6c25.333 4 42.333 10.333 51 19s13 24 13 46c0 33.333 -10.5 59.333 -31.5 78s-53.167 28 -96.5 28c-49.333 0 -85.666 -9.33301 -108.999 -28s-37.666 -48.334 -42.999 -89.001h-61c0 50 17.333 90.333 52 121
c38 33.333 91.667 50 161 50c55.333 0 98.666 -11 129.999 -33c38.667 -27.333 58 -70.666 58 -129.999v-280c0 -32 9 -48 27 -48c10 0 22 2.66699 36 8v-47zM411 191l-0.000976562 81c-29.333 -12 -64.333 -20 -105 -24c-74.667 -8 -122 -17 -142 -27
c-36 -18 -54 -47 -54 -87c0 -28.667 10.833 -51.5 32.5 -68.5s49.167 -25.5 82.5 -25.5c48.667 0 90.334 11.667 125.001 35c40.667 27.333 61 66 61 116zM345.999 574h-51l-138 139h78z" />
    <glyph glyph-name="aacute" unicode="&#xe1;" 
d="M534 2c-11.333 -4 -19.833 -6.66699 -25.5 -8s-12.834 -2 -21.501 -2c-26 0 -44.333 5 -55 15c-13.333 12 -20 33.667 -20 65c-26.667 -30 -58 -52.333 -94 -67c-31.333 -12.667 -64.333 -19 -99 -19c-49.333 0 -90 12.667 -122 38c-34 27.333 -51 64.333 -51 111
c0 46 17 82.333 51 109c30.667 24 74 39.667 130 47l75 10l45 6c25.333 4 42.333 10.333 51 19s13 24 13 46c0 33.333 -10.5 59.333 -31.5 78s-53.167 28 -96.5 28c-49.333 0 -85.666 -9.33301 -108.999 -28s-37.666 -48.334 -42.999 -89.001h-61c0 50 17.333 90.333 52 121
c38 33.333 91.667 50 161 50c55.333 0 98.666 -11 129.999 -33c38.667 -27.333 58 -70.666 58 -129.999v-280c0 -32 9 -48 27 -48c10 0 22 2.66699 36 8v-47zM411 191l-0.000976562 81c-29.333 -12 -64.333 -20 -105 -24c-74.667 -8 -122 -17 -142 -27
c-36 -18 -54 -47 -54 -87c0 -28.667 10.833 -51.5 32.5 -68.5s49.167 -25.5 82.5 -25.5c48.667 0 90.334 11.667 125.001 35c40.667 27.333 61 66 61 116zM408.999 713l-137 -139h-51l111 139h77z" />
    <glyph glyph-name="acircumflex" unicode="&#xe2;" 
d="M534 2c-11.333 -4 -19.833 -6.66699 -25.5 -8s-12.834 -2 -21.501 -2c-26 0 -44.333 5 -55 15c-13.333 12 -20 33.667 -20 65c-26.667 -30 -58 -52.333 -94 -67c-31.333 -12.667 -64.333 -19 -99 -19c-49.333 0 -90 12.667 -122 38c-34 27.333 -51 64.333 -51 111
c0 46 17 82.333 51 109c30.667 24 74 39.667 130 47l75 10l45 6c25.333 4 42.333 10.333 51 19s13 24 13 46c0 33.333 -10.5 59.333 -31.5 78s-53.167 28 -96.5 28c-49.333 0 -85.666 -9.33301 -108.999 -28s-37.666 -48.334 -42.999 -89.001h-61c0 50 17.333 90.333 52 121
c38 33.333 91.667 50 161 50c55.333 0 98.666 -11 129.999 -33c38.667 -27.333 58 -70.666 58 -129.999v-280c0 -32 9 -48 27 -48c10 0 22 2.66699 36 8v-47zM411 191l-0.000976562 81c-29.333 -12 -64.333 -20 -105 -24c-74.667 -8 -122 -17 -142 -27
c-36 -18 -54 -47 -54 -87c0 -28.667 10.833 -51.5 32.5 -68.5s49.167 -25.5 82.5 -25.5c48.667 0 90.334 11.667 125.001 35c40.667 27.333 61 66 61 116zM429.999 574h-65l-82 102l-82 -102h-65l114 139h67z" />
    <glyph glyph-name="atilde" unicode="&#xe3;" 
d="M534 2c-11.333 -4 -19.833 -6.66699 -25.5 -8s-12.834 -2 -21.501 -2c-26 0 -44.333 5 -55 15c-13.333 12 -20 33.667 -20 65c-26.667 -30 -58 -52.333 -94 -67c-31.333 -12.667 -64.333 -19 -99 -19c-49.333 0 -90 12.667 -122 38c-34 27.333 -51 64.333 -51 111
c0 46 17 82.333 51 109c30.667 24 74 39.667 130 47l75 10l45 6c25.333 4 42.333 10.333 51 19s13 24 13 46c0 33.333 -10.5 59.333 -31.5 78s-53.167 28 -96.5 28c-49.333 0 -85.666 -9.33301 -108.999 -28s-37.666 -48.334 -42.999 -89.001h-61c0 50 17.333 90.333 52 121
c38 33.333 91.667 50 161 50c55.333 0 98.666 -11 129.999 -33c38.667 -27.333 58 -70.666 58 -129.999v-280c0 -32 9 -48 27 -48c10 0 22 2.66699 36 8v-47zM411 191l-0.000976562 81c-29.333 -12 -64.333 -20 -105 -24c-74.667 -8 -122 -17 -142 -27
c-36 -18 -54 -47 -54 -87c0 -28.667 10.833 -51.5 32.5 -68.5s49.167 -25.5 82.5 -25.5c48.667 0 90.334 11.667 125.001 35c40.667 27.333 61 66 61 116zM440.999 688c-2.66699 -28 -11.333 -51.333 -26 -70s-33.334 -28 -56.001 -28c-19.333 0 -45 7.5 -77 22.5
s-54.667 22.5 -68 22.5c-12 0 -22 -3.66699 -30 -11s-14.667 -20 -20 -38h-36c0 26.667 8.83301 49.5 26.5 68.5s39.167 28.5 64.5 28.5c15.333 0 39.333 -7.5 72 -22.5s55.334 -22.5 68.001 -22.5c10.667 0 19.667 3.66699 27 11s13 20.333 17 39h38z" />
    <glyph glyph-name="adieresis" unicode="&#xe4;" 
d="M534 2c-11.333 -4 -19.833 -6.66699 -25.5 -8s-12.834 -2 -21.501 -2c-26 0 -44.333 5 -55 15c-13.333 12 -20 33.667 -20 65c-26.667 -30 -58 -52.333 -94 -67c-31.333 -12.667 -64.333 -19 -99 -19c-49.333 0 -90 12.667 -122 38c-34 27.333 -51 64.333 -51 111
c0 46 17 82.333 51 109c30.667 24 74 39.667 130 47l75 10l45 6c25.333 4 42.333 10.333 51 19s13 24 13 46c0 33.333 -10.5 59.333 -31.5 78s-53.167 28 -96.5 28c-49.333 0 -85.666 -9.33301 -108.999 -28s-37.666 -48.334 -42.999 -89.001h-61c0 50 17.333 90.333 52 121
c38 33.333 91.667 50 161 50c55.333 0 98.666 -11 129.999 -33c38.667 -27.333 58 -70.666 58 -129.999v-280c0 -32 9 -48 27 -48c10 0 22 2.66699 36 8v-47zM411 191l-0.000976562 81c-29.333 -12 -64.333 -20 -105 -24c-74.667 -8 -122 -17 -142 -27
c-36 -18 -54 -47 -54 -87c0 -28.667 10.833 -51.5 32.5 -68.5s49.167 -25.5 82.5 -25.5c48.667 0 90.334 11.667 125.001 35c40.667 27.333 61 66 61 116zM395.999 584h-65v102h65v-102zM236.999 584h-65v102h65v-102z" />
    <glyph glyph-name="aring" unicode="&#xe5;" 
d="M534 2c-11.333 -4 -19.833 -6.66699 -25.5 -8s-12.834 -2 -21.501 -2c-26 0 -44.333 5 -55 15c-13.333 12 -20 33.667 -20 65c-26.667 -30 -58 -52.333 -94 -67c-31.333 -12.667 -64.333 -19 -99 -19c-49.333 0 -90 12.667 -122 38c-34 27.333 -51 64.333 -51 111
c0 46 17 82.333 51 109c30.667 24 74 39.667 130 47l75 10l45 6c25.333 4 42.333 10.333 51 19s13 24 13 46c0 33.333 -10.5 59.333 -31.5 78s-53.167 28 -96.5 28c-49.333 0 -85.666 -9.33301 -108.999 -28s-37.666 -48.334 -42.999 -89.001h-61c0 50 17.333 90.333 52 121
c38 33.333 91.667 50 161 50c55.333 0 98.666 -11 129.999 -33c38.667 -27.333 58 -70.666 58 -129.999v-280c0 -32 9 -48 27 -48c10 0 22 2.66699 36 8v-47zM411 191l-0.000976562 81c-29.333 -12 -64.333 -20 -105 -24c-74.667 -8 -122 -17 -142 -27
c-36 -18 -54 -47 -54 -87c0 -28.667 10.833 -51.5 32.5 -68.5s49.167 -25.5 82.5 -25.5c48.667 0 90.334 11.667 125.001 35c40.667 27.333 61 66 61 116zM377.999 677c0 -27.333 -9.66699 -50.667 -29 -70s-42.666 -29 -69.999 -29c-26.667 0 -50 9.66699 -70 29
s-30 42.333 -30 69c0 27.333 9.66699 51 29 71s43 30 71 30c27.333 0 50.666 -9.66699 69.999 -29s29 -43 29 -71zM344.999 676.999c0 18 -6.33105 33.667 -18.998 47s-28.334 20 -47.001 20c-18 0 -33.667 -6.66699 -47 -20s-20 -29 -20 -47
c0 -17.333 6.66699 -32.666 20 -45.999s29 -20 47 -20c17.333 0 32.666 6.66699 45.999 20s20 28.666 20 45.999z" />
    <glyph glyph-name="ae" unicode="&#xe6;" horiz-adv-x="889" 
d="M847 245l-390.001 0.000976562c0 -63.333 14.5 -113.333 43.5 -150s71.833 -55 128.5 -55c40 0 72.667 10.667 98 32s43 50.666 53 87.999h63c-12 -52.667 -35.333 -94 -70 -124c-38.667 -33.333 -87.334 -50 -146.001 -50c-47.333 0 -87 9 -119 27s-60 47 -84 87
c-27.333 -40 -58.5 -69 -93.5 -87s-75.833 -27 -122.5 -27c-54.667 0 -96.5 13.167 -125.5 39.5s-43.5 61.833 -43.5 106.5c0 63.333 27.667 109 83 137c28.667 14 73 24 133 30s98 13 114 21s24 23.333 24 46c0 42 -8.83301 71.167 -26.5 87.5s-50.5 24.5 -98.5 24.5
c-46.667 0 -81.167 -9.5 -103.5 -28.5s-36.166 -47.5 -41.499 -85.5h-62c0 55.333 20.333 98 61 128c36.667 26.667 84.667 40 144 40c45.333 0 83.5 -6.66699 114.5 -20s52.833 -35 65.5 -65c20 30.667 44.167 52.5 72.5 65.5s63.833 19.5 106.5 19.5
c76.667 0 133.334 -25 170.001 -75c34.667 -47.333 52 -118 52 -212zM782.999 295.001c0 56 -14.333 100.5 -43 133.5s-67 49.5 -115 49.5c-53.333 0 -95.333 -19 -126 -57c-28 -34.667 -42 -76.667 -42 -126h326zM392.999 204.001v69.999
c-22 -11.333 -62.5 -20.666 -121.5 -27.999s-99.5 -16.333 -121.5 -27c-14.667 -7.33301 -26.167 -17.333 -34.5 -30s-12.5 -29 -12.5 -49c0 -30.667 9 -55 27 -73s45.333 -27 82 -27c58 0 102.667 14.333 134 43s47 69 47 121z" />
    <glyph glyph-name="ccedilla" unicode="&#xe7;" 
d="M508 179c-12.667 -67.333 -40.3311 -117.331 -82.998 -149.998c-37.333 -28.667 -83.333 -43 -138 -43c-82 0 -143.667 27 -185 81c-36.667 48 -55 111.667 -55 191c0 75.333 19.667 138.333 59 189c44 56.667 104 85 180 85c60.667 0 109.167 -14.333 145.5 -43
s59.166 -73.334 68.499 -134.001h-61c-11.333 42 -30.5 73 -57.5 93s-58.833 30 -95.5 30c-56 0 -99.167 -21 -129.5 -63s-45.5 -94.333 -45.5 -157s13.667 -113.334 41 -152.001c31.333 -44 76.333 -66 135 -66c43.333 0 78.666 12.333 105.999 37s44.333 58.667 51 102h64
zM369.003 -121.998c0 -30 -12.332 -52.332 -36.999 -66.999c-20 -12 -46.333 -18 -79 -18c-14.667 0 -29.167 1.66699 -43.5 5s-28.833 8 -43.5 14l15 30c29.333 -10 50.666 -15 63.999 -15c18 0 33.5 4 46.5 12s19.5 19.333 19.5 34c0 12.667 -4.83301 22.5 -14.5 29.5
s-21.5 10.5 -35.5 10.5c-12 0 -26.667 -2.66699 -44 -8l-15 13l60 82h39l-47 -59c14 4 26.333 6 37 6c20 0 38 -5.83301 54 -17.5s24 -28.834 24 -51.501z" />
    <glyph glyph-name="egrave" unicode="&#xe8;" 
d="M511 245l-401.999 0.000976562c0 -62 15.667 -111.667 47 -149s74 -56 128 -56c36.667 0 68.667 9.33301 96 28c30.667 21.333 50.667 51.666 60 90.999h67c-16 -53.333 -40 -94 -72 -122c-38 -34 -88 -51 -150 -51c-84 0 -146.667 28 -188 84
c-34.667 47.333 -52 109 -52 185c0 78.667 20.667 143.667 62 195c44 54.667 102.667 82 176 82c75.333 0 132.666 -26.333 171.999 -79c37.333 -50 56 -119.333 56 -208zM447.001 295.001c0 51.333 -12.667 93.333 -38 126c-29.333 38 -71.333 57 -126 57
c-44.667 0 -82 -14.667 -112 -44c-33.333 -32 -54 -78.333 -62 -139h338zM346.001 574.001h-51l-138 139h78z" />
    <glyph glyph-name="eacute" unicode="&#xe9;" 
d="M511 245l-401.999 0.000976562c0 -62 15.667 -111.667 47 -149s74 -56 128 -56c36.667 0 68.667 9.33301 96 28c30.667 21.333 50.667 51.666 60 90.999h67c-16 -53.333 -40 -94 -72 -122c-38 -34 -88 -51 -150 -51c-84 0 -146.667 28 -188 84
c-34.667 47.333 -52 109 -52 185c0 78.667 20.667 143.667 62 195c44 54.667 102.667 82 176 82c75.333 0 132.666 -26.333 171.999 -79c37.333 -50 56 -119.333 56 -208zM447.001 295.001c0 51.333 -12.667 93.333 -38 126c-29.333 38 -71.333 57 -126 57
c-44.667 0 -82 -14.667 -112 -44c-33.333 -32 -54 -78.333 -62 -139h338zM409.001 713.001l-137 -139h-51l111 139h77z" />
    <glyph glyph-name="ecircumflex" unicode="&#xea;" 
d="M511 245l-401.999 0.000976562c0 -62 15.667 -111.667 47 -149s74 -56 128 -56c36.667 0 68.667 9.33301 96 28c30.667 21.333 50.667 51.666 60 90.999h67c-16 -53.333 -40 -94 -72 -122c-38 -34 -88 -51 -150 -51c-84 0 -146.667 28 -188 84
c-34.667 47.333 -52 109 -52 185c0 78.667 20.667 143.667 62 195c44 54.667 102.667 82 176 82c75.333 0 132.666 -26.333 171.999 -79c37.333 -50 56 -119.333 56 -208zM447.001 295.001c0 51.333 -12.667 93.333 -38 126c-29.333 38 -71.333 57 -126 57
c-44.667 0 -82 -14.667 -112 -44c-33.333 -32 -54 -78.333 -62 -139h338zM430.001 574.001h-65l-82 102l-82 -102h-65l114 139h67z" />
    <glyph glyph-name="edieresis" unicode="&#xeb;" 
d="M511 245l-401.999 0.000976562c0 -62 15.667 -111.667 47 -149s74 -56 128 -56c36.667 0 68.667 9.33301 96 28c30.667 21.333 50.667 51.666 60 90.999h67c-16 -53.333 -40 -94 -72 -122c-38 -34 -88 -51 -150 -51c-84 0 -146.667 28 -188 84
c-34.667 47.333 -52 109 -52 185c0 78.667 20.667 143.667 62 195c44 54.667 102.667 82 176 82c75.333 0 132.666 -26.333 171.999 -79c37.333 -50 56 -119.333 56 -208zM447.001 295.001c0 51.333 -12.667 93.333 -38 126c-29.333 38 -71.333 57 -126 57
c-44.667 0 -82 -14.667 -112 -44c-33.333 -32 -54 -78.333 -62 -139h338zM396.001 584.001h-65v102h65v-102zM237.001 584.001h-65v102h65v-102z" />
    <glyph glyph-name="igrave" unicode="&#xec;" horiz-adv-x="222" 
d="M138 0h-60v518h60v-518zM179 574h-51l-138 139h78z" />
    <glyph glyph-name="iacute" unicode="&#xed;" horiz-adv-x="222" 
d="M138 0h-60v518h60v-518zM222 713l-137 -139h-51l111 139h77z" />
    <glyph glyph-name="icircumflex" unicode="&#xee;" horiz-adv-x="222" 
d="M138 0h-60v518h60v-518zM243 574h-65l-82 102l-82 -102h-65l114 139h67z" />
    <glyph glyph-name="idieresis" unicode="&#xef;" horiz-adv-x="222" 
d="M138 0h-60v518h60v-518zM209 584h-65v102h65v-102zM50 584h-65v102h65v-102z" />
    <glyph glyph-name="eth" unicode="&#xf0;" 
d="M518 260c0 -84.667 -22.166 -151.5 -66.499 -200.5s-102.166 -73.5 -173.499 -73.5c-66 0 -121 21.667 -165 65c-50 49.333 -75 119 -75 209c0 76.667 19 139 57 187c44.667 56.667 111 85 199 85c-12.667 17.333 -26.334 33 -41.001 47
c-4.66699 4.66699 -21.334 19.667 -50.001 45l-109 -54l-34 27l109 55c-24 20 -51.333 40.667 -82 62l49 25c32.667 -20 62 -40 88 -60l120 60l35 -28l-121 -60c45.333 -36 90 -76.667 134 -122c48 -49.333 79 -88 93 -116c22 -44 33 -95 33 -153zM454.001 257
c0 69.333 -14.6689 123.499 -44.002 162.499s-73 58.5 -131 58.5c-57.333 0 -101.166 -20 -131.499 -60s-45.5 -93 -45.5 -159c0 -69.333 15.833 -123.166 47.5 -161.499s74.834 -57.5 129.501 -57.5c56.667 0 100.667 21.333 132 64c28.667 39.333 43 90.333 43 153z" />
    <glyph glyph-name="ntilde" unicode="&#xf1;" 
d="M483 0l-60 0.00195312v340c0 92 -44 138 -132 138c-64 0 -110 -27.667 -138 -83c-14 -28 -21 -62.333 -21 -103v-292h-60v518h60v-72c26.667 28.667 53.167 50.167 79.5 64.5s55.5 21.5 87.5 21.5c27.333 0 52.833 -3.83301 76.5 -11.5s44.167 -20.334 61.5 -38.001
s29.333 -36.834 36 -57.501s10 -46.667 10 -78v-347zM441 688.002c-2.66699 -28 -11.333 -51.333 -26 -70s-33.334 -28 -56.001 -28c-19.333 0 -45 7.5 -77 22.5s-54.667 22.5 -68 22.5c-12 0 -22 -3.66699 -30 -11s-14.667 -20 -20 -38h-36
c0 26.667 8.83301 49.5 26.5 68.5s39.167 28.5 64.5 28.5c15.333 0 39.333 -7.5 72 -22.5s55.334 -22.5 68.001 -22.5c10.667 0 19.667 3.66699 27 11s13 20.333 17 39h38z" />
    <glyph glyph-name="ograve" unicode="&#xf2;" 
d="M518 259c0 -80 -21.333 -145.501 -64 -196.501s-101 -76.5 -175 -76.5c-69.333 0 -126 23 -170 69c-47.333 50 -71 117.667 -71 203c0 82.667 21.167 149 63.5 199s101.166 75 176.499 75c76.667 0 136.334 -25.667 179.001 -77c40.667 -49.333 61 -114.666 61 -195.999z
M454 256.999c0 66.667 -12.999 118.668 -38.999 156.001c-30 43.333 -75.667 65 -137 65c-56 0 -99.333 -20 -130 -60s-46 -93 -46 -159c0 -68.667 15.667 -122.334 47 -161.001s74.666 -58 129.999 -58c58 0 102.667 22.333 134 67c27.333 39.333 41 89.333 41 150z
M346.001 574h-51l-138 139h78z" />
    <glyph glyph-name="oacute" unicode="&#xf3;" 
d="M518 259c0 -80 -21.333 -145.501 -64 -196.501s-101 -76.5 -175 -76.5c-69.333 0 -126 23 -170 69c-47.333 50 -71 117.667 -71 203c0 82.667 21.167 149 63.5 199s101.166 75 176.499 75c76.667 0 136.334 -25.667 179.001 -77c40.667 -49.333 61 -114.666 61 -195.999z
M454 256.999c0 66.667 -12.999 118.668 -38.999 156.001c-30 43.333 -75.667 65 -137 65c-56 0 -99.333 -20 -130 -60s-46 -93 -46 -159c0 -68.667 15.667 -122.334 47 -161.001s74.666 -58 129.999 -58c58 0 102.667 22.333 134 67c27.333 39.333 41 89.333 41 150z
M409.001 713l-137 -139h-51l111 139h77z" />
    <glyph glyph-name="ocircumflex" unicode="&#xf4;" 
d="M518 259c0 -80 -21.333 -145.501 -64 -196.501s-101 -76.5 -175 -76.5c-69.333 0 -126 23 -170 69c-47.333 50 -71 117.667 -71 203c0 82.667 21.167 149 63.5 199s101.166 75 176.499 75c76.667 0 136.334 -25.667 179.001 -77c40.667 -49.333 61 -114.666 61 -195.999z
M454 256.999c0 66.667 -12.999 118.668 -38.999 156.001c-30 43.333 -75.667 65 -137 65c-56 0 -99.333 -20 -130 -60s-46 -93 -46 -159c0 -68.667 15.667 -122.334 47 -161.001s74.666 -58 129.999 -58c58 0 102.667 22.333 134 67c27.333 39.333 41 89.333 41 150z
M430.001 574h-65l-82 102l-82 -102h-65l114 139h67z" />
    <glyph glyph-name="otilde" unicode="&#xf5;" 
d="M518 259c0 -80 -21.333 -145.501 -64 -196.501s-101 -76.5 -175 -76.5c-69.333 0 -126 23 -170 69c-47.333 50 -71 117.667 -71 203c0 82.667 21.167 149 63.5 199s101.166 75 176.499 75c76.667 0 136.334 -25.667 179.001 -77c40.667 -49.333 61 -114.666 61 -195.999z
M454 256.999c0 66.667 -12.999 118.668 -38.999 156.001c-30 43.333 -75.667 65 -137 65c-56 0 -99.333 -20 -130 -60s-46 -93 -46 -159c0 -68.667 15.667 -122.334 47 -161.001s74.666 -58 129.999 -58c58 0 102.667 22.333 134 67c27.333 39.333 41 89.333 41 150z
M441.001 688c-2.66699 -28 -11.333 -51.333 -26 -70s-33.334 -28 -56.001 -28c-19.333 0 -45 7.5 -77 22.5s-54.667 22.5 -68 22.5c-12 0 -22 -3.66699 -30 -11s-14.667 -20 -20 -38h-36c0 26.667 8.83301 49.5 26.5 68.5s39.167 28.5 64.5 28.5
c15.333 0 39.333 -7.5 72 -22.5s55.334 -22.5 68.001 -22.5c10.667 0 19.667 3.66699 27 11s13 20.333 17 39h38z" />
    <glyph glyph-name="odieresis" unicode="&#xf6;" 
d="M518 259c0 -80 -21.333 -145.501 -64 -196.501s-101 -76.5 -175 -76.5c-69.333 0 -126 23 -170 69c-47.333 50 -71 117.667 -71 203c0 82.667 21.167 149 63.5 199s101.166 75 176.499 75c76.667 0 136.334 -25.667 179.001 -77c40.667 -49.333 61 -114.666 61 -195.999z
M454 256.999c0 66.667 -12.999 118.668 -38.999 156.001c-30 43.333 -75.667 65 -137 65c-56 0 -99.333 -20 -130 -60s-46 -93 -46 -159c0 -68.667 15.667 -122.334 47 -161.001s74.666 -58 129.999 -58c58 0 102.667 22.333 134 67c27.333 39.333 41 89.333 41 150z
M396.001 584h-65v102h65v-102zM237.001 584h-65v102h65v-102z" />
    <glyph glyph-name="divide" unicode="&#xf7;" horiz-adv-x="660" 
d="M367 412h-73v88h73v-88zM580 220h-500v60h500v-60zM367 0h-73v88h73v-88z" />
    <glyph glyph-name="oslash" unicode="&#xf8;" 
d="M521 510l-54.999 -65c17.333 -23.333 30.666 -51 39.999 -83s14 -65.333 14 -100c0 -86 -21.167 -153.5 -63.5 -202.5s-100.833 -73.5 -175.5 -73.5c-64.667 0 -116.667 18.333 -156 55l-54 -64l-36 29l58 68c-35.333 46 -53 107.333 -53 184
c0 81.333 21.333 147.333 64 198s101.334 76 176.001 76c63.333 0 114.666 -17.667 153.999 -53l52 62zM395.001 433c-13.333 14.667 -29.667 25.832 -49 33.499s-41.333 11.5 -66 11.5c-56 0 -99.333 -20.167 -130 -60.5s-46 -93.166 -46 -158.499
c0 -56.667 10.333 -101.667 31 -135zM456 256.998c0 30.667 -2.16699 56.833 -6.5 78.5s-12.5 42.167 -24.5 61.5l-263 -312c31.333 -30 71 -45 119 -45c58 0 102.667 22.333 134 67c27.333 39.333 41 89.333 41 150z" />
    <glyph glyph-name="ugrave" unicode="&#xf9;" 
d="M483 0l-60.001 0.000976562v72c-26 -31.333 -52.333 -53.5 -79 -66.5s-56.667 -19.5 -90 -19.5c-62 0 -108.667 17.667 -140 53c-28 32 -42 76.333 -42 133v346h60v-341c0 -91.333 44.333 -137 133 -137c50.667 0 90.334 19.667 119.001 59
c26 35.333 39 79.666 39 132.999v286h60v-518zM345.999 574.001h-51l-138 139h78z" />
    <glyph glyph-name="uacute" unicode="&#xfa;" 
d="M483 0l-60.001 0.000976562v72c-26 -31.333 -52.333 -53.5 -79 -66.5s-56.667 -19.5 -90 -19.5c-62 0 -108.667 17.667 -140 53c-28 32 -42 76.333 -42 133v346h60v-341c0 -91.333 44.333 -137 133 -137c50.667 0 90.334 19.667 119.001 59
c26 35.333 39 79.666 39 132.999v286h60v-518zM408.999 713.001l-137 -139h-51l111 139h77z" />
    <glyph glyph-name="ucircumflex" unicode="&#xfb;" 
d="M483 0l-60.001 0.000976562v72c-26 -31.333 -52.333 -53.5 -79 -66.5s-56.667 -19.5 -90 -19.5c-62 0 -108.667 17.667 -140 53c-28 32 -42 76.333 -42 133v346h60v-341c0 -91.333 44.333 -137 133 -137c50.667 0 90.334 19.667 119.001 59
c26 35.333 39 79.666 39 132.999v286h60v-518zM429.999 574.001h-65l-82 102l-82 -102h-65l114 139h67z" />
    <glyph glyph-name="udieresis" unicode="&#xfc;" 
d="M483 0l-60.001 0.000976562v72c-26 -31.333 -52.333 -53.5 -79 -66.5s-56.667 -19.5 -90 -19.5c-62 0 -108.667 17.667 -140 53c-28 32 -42 76.333 -42 133v346h60v-341c0 -91.333 44.333 -137 133 -137c50.667 0 90.334 19.667 119.001 59
c26 35.333 39 79.666 39 132.999v286h60v-518zM395.999 584.001h-65v102h65v-102zM236.999 584.001h-65v102h65v-102z" />
    <glyph glyph-name="yacute" unicode="&#xfd;" horiz-adv-x="500" 
d="M482 518l-195 -516.001c-51.333 -137.333 -105.666 -206 -162.999 -206c-12 0 -23.167 1 -33.5 3s-17.833 3.33301 -22.5 4v56c7.33301 -1.33301 15.166 -2.66602 23.499 -3.99902s16.5 -2 24.5 -2c27.333 0 49 15.333 65 46c16 42.667 28.667 75 38 97l-201 522h67
l166 -445l166 445h65zM381 712.999l-137 -139h-51l111 139h77z" />
    <glyph glyph-name="thorn" unicode="&#xfe;" horiz-adv-x="611" 
d="M555 262c0 -83.333 -20.333 -150.169 -61 -200.502s-97.667 -75.5 -171 -75.5c-36 0 -71 8.33301 -105 25s-60.333 40.667 -79 72v-287h-60v924h60v-293c18 32.667 44 58.334 78 77.001s69 28 105 28c77.333 0 136.333 -25.667 177 -77
c37.333 -47.333 56 -111.666 56 -192.999zM491 262.997c0 27.333 -2 50.668 -6 70.001s-9.66699 36.333 -17 51c-14.667 30 -35.167 53.167 -61.5 69.5s-56.833 24.5 -91.5 24.5c-55.333 0 -98.5 -20.333 -129.5 -61s-46.5 -93.667 -46.5 -159
c0 -59.333 14.333 -109 43 -149c32.667 -46 77 -69 133 -69c56.667 0 100.667 21 132 63c29.333 39.333 44 92.666 44 159.999z" />
    <glyph glyph-name="ydieresis" unicode="&#xff;" horiz-adv-x="500" 
d="M482 518l-195 -516.001c-51.333 -137.333 -105.666 -206 -162.999 -206c-12 0 -23.167 1 -33.5 3s-17.833 3.33301 -22.5 4v56c7.33301 -1.33301 15.166 -2.66602 23.499 -3.99902s16.5 -2 24.5 -2c27.333 0 49 15.333 65 46c16 42.667 28.667 75 38 97l-201 522h67
l166 -445l166 445h65zM368 583.999h-65v102h65v-102zM209 583.999h-65v102h65v-102z" />
    <glyph glyph-name="dotlessi" unicode="&#x131;" horiz-adv-x="222" 
d="M138 0h-60v518h60v-518z" />
    <glyph glyph-name="Lslash" unicode="&#x141;" 
d="M535 0h-454v360l-81 -40v60l81 40v300h68v-250l81 40v-60l-81 -40v-352h386v-58z" />
    <glyph glyph-name="lslash" unicode="&#x142;" horiz-adv-x="222" 
d="M212 430l-71 -40v-390h-60v340l-71 -40v60l71 40v320h60v-270l71 40v-60z" />
    <glyph glyph-name="OE" unicode="&#x152;" horiz-adv-x="1000" 
d="M967 0h-416.999v72c-58 -60.667 -125.333 -91 -202 -91c-98.667 0 -175.334 35.667 -230.001 107c-51.333 67.333 -77 157 -77 269c0 118 26.5 211.167 79.5 279.5s128.167 102.5 225.5 102.5c98.667 0 166.667 -31.667 204 -95v76h407v-58h-342v-260h320v-58h-320v-286
h352v-58zM547.001 224v278.001c0 54.667 -17.167 98.167 -51.5 130.5s-83.166 48.5 -146.499 48.5c-78 0 -137.5 -27.167 -178.5 -81.5s-61.5 -133.833 -61.5 -238.5c0 -98.667 19.333 -175.667 58 -231c42 -60.667 104.333 -91 187 -91c26 0 53.667 6 83 18
s52.166 26.167 68.499 42.5s27.333 34.166 33 53.499s8.5 43 8.5 71z" />
    <glyph glyph-name="oe" unicode="&#x153;" horiz-adv-x="944" 
d="M904 245l-393.001 0.000976562l-1 -16c0 -46 13 -86.667 39 -122c32.667 -44.667 78.667 -67 138 -67c37.333 0 69.5 10.833 96.5 32.5s44.5 50.834 52.5 87.501h61c-11.333 -54.667 -35.666 -97.334 -72.999 -128.001s-83.333 -46 -138 -46
c-47.333 0 -88.833 11.333 -124.5 34s-63.167 53.334 -82.5 92.001c-18.667 -38.667 -46.5 -69.334 -83.5 -92.001s-79.167 -34 -126.5 -34c-70 0 -126.333 24.333 -169 73s-64 115.667 -64 201c0 82.667 20.167 148.667 60.5 198s98.5 74 174.5 74
c51.333 0 94.666 -11.333 129.999 -34c32 -20.667 58 -51 78 -91c20.667 40 46.667 70.333 78 91c34.667 22.667 76.334 34 125.001 34c80 0 138 -26 174 -78c32 -46.667 48 -116.334 48 -209.001zM839.999 295.001c0 58.667 -13.501 103.832 -40.501 135.499
s-66.167 47.5 -117.5 47.5c-49.333 0 -90.166 -17.167 -122.499 -51.5s-48.5 -78.166 -48.5 -131.499h329zM446.998 266.999c0 66.667 -16.168 118.5 -48.501 155.5s-76.166 55.5 -131.499 55.5c-50 0 -89.667 -17.667 -119 -53c-32 -38.667 -48 -95.667 -48 -171
c0 -68 15.333 -120.667 46 -158s72.667 -56 126 -56c52.667 0 95 19.833 127 59.5s48 95.5 48 167.5z" />
    <glyph glyph-name="Scaron" unicode="&#x160;" horiz-adv-x="611" 
d="M567 191c0 -73.333 -27.998 -128.33 -83.998 -164.997c-46 -30 -104.667 -45 -176 -45c-86.667 0 -153.334 22.667 -200.001 68c-42.667 41.333 -64 96.666 -64 165.999h66c5.33301 -60 26 -104.333 62 -133s84.333 -43 145 -43c62 0 109 15.333 141 46
c28 26.667 42 59.667 42 99c0 29.333 -6.5 53.166 -19.5 71.499s-31.833 33.833 -56.5 46.5c-14 7.33301 -68.333 23 -163 47c-42.667 10.667 -76.334 22.334 -101.001 35.001c-28.667 14.667 -51 32.667 -67 54c-21.333 29.333 -32 66 -32 110
c0 53.333 20.667 97.666 62 132.999c44.667 38.667 105.334 58 182.001 58s137 -21 181 -63c40.667 -38.667 61 -89.334 61 -152.001h-65c0 52.667 -18.333 93 -55 121c-31.333 24 -71.333 36 -120 36c-54.667 0 -98.167 -12.167 -130.5 -36.5s-48.5 -58.166 -48.5 -101.499
c0 -26 5.66699 -47.167 17 -63.5s29.666 -30.833 54.999 -43.5l270 -81c65.333 -32.667 98 -87.334 98 -164.001zM457.002 915.003l-113 -139h-67l-114 139h65l82 -102l82 102h65z" />
    <glyph glyph-name="scaron" unicode="&#x161;" horiz-adv-x="500" 
d="M454 137c0 -48 -18.999 -85.166 -56.999 -111.499s-88.667 -39.5 -152 -39.5c-56.667 0 -103.334 15 -140.001 45c-39.333 32 -59 75.667 -59 131h61c9.33301 -43.333 25.833 -74.5 49.5 -93.5s58.5 -28.5 104.5 -28.5c42 0 74.667 10 98 30c20.667 17.333 31 39 31 65
c0 41.333 -28.667 70.333 -86 87l-160 40c-57.333 23.333 -86 64.666 -86 123.999c0 43.333 16.5 78.5 49.5 105.5s77.167 40.5 132.5 40.5c58 0 104 -12.833 138 -38.5s54.667 -67.167 62 -124.5h-61c-10 72.667 -56.667 109 -140 109c-36 0 -64.5 -7.83301 -85.5 -23.5
s-31.5 -37.167 -31.5 -64.5c0 -38 28.667 -66 86 -84l160 -46c57.333 -25.333 86 -66.333 86 -123zM402.001 713.001l-113 -139h-67l-114 139h65l82 -102l82 102h65z" />
    <glyph glyph-name="Ydieresis" unicode="&#x178;" horiz-adv-x="611" 
d="M598 720l-261 -406v-314h-68v309l-257 411h78l212 -347l217 347h79zM423 786h-65v102h65v-102zM264 786h-65v102h65v-102z" />
    <glyph glyph-name="Zcaron" unicode="&#x17d;" horiz-adv-x="611" 
d="M579 0h-548v57l461 605h-422v58h506v-57l-461 -605h464v-58zM457 915l-113 -139h-67l-114 139h65l82 -102l82 102h65z" />
    <glyph glyph-name="zcaron" unicode="&#x17e;" horiz-adv-x="500" 
d="M467 0h-434v53l344 415h-321v50h398v-53l-344 -415h357v-50zM402 713l-113 -139h-67l-114 139h65l82 -102l82 102h65z" />
    <glyph glyph-name="florin" unicode="&#x192;" 
d="M539 714l-19.998 -49c-10.667 5.33301 -20 9 -28 11s-16 3 -24 3c-38 0 -65.667 -17 -83 -51c-8.66699 -18 -16.834 -44.333 -24.501 -79l-21.5 -101h115v-48h-123l-64 -336c-16.667 -87.333 -38.667 -150.666 -66 -189.999c-32 -46.667 -76 -70 -132 -70
c-11.333 0 -21.333 1 -30 3c-11.333 4 -19.666 6.66699 -24.999 8l19 57c15.333 -8.66699 31.333 -13 48 -13c17.333 0 31.666 4.16699 42.999 12.5s23.166 25 35.499 50s24 59.667 35 104s26.167 120.833 45.5 229.5l26 145h-113v48h121c12 54 18.667 83.333 20 88
c10.667 43.333 23.5 80.166 38.5 110.499s34.5 52.5 58.5 66.5s50.667 21 80 21c22.667 0 45.667 -6.66699 69 -20z" />
    <glyph glyph-name="hungarumlaut" unicode="&#x2ba;" horiz-adv-x="333" 
d="M459 713l-137 -139h-51l111 139h77zM297 713l-137 -139h-51l111 139h77z" />
    <glyph glyph-name="circumflex" unicode="&#x2c6;" horiz-adv-x="333" 
d="M318 574h-65l-82 102l-82 -102h-65l114 139h67z" />
    <glyph glyph-name="caron" unicode="&#x2c7;" horiz-adv-x="333" 
d="M318 713l-113 -139h-67l-114 139h65l82 -102l82 102h65z" />
    <glyph glyph-name="breve" unicode="&#x2d8;" horiz-adv-x="333" 
d="M316 706c-4 -41.333 -19.5 -72.668 -46.5 -94.001s-60.833 -32 -101.5 -32c-42 0 -75.833 11.5 -101.5 34.5s-38.5 53.5 -38.5 91.5h39c5.33301 -27.333 17.5 -47.666 36.5 -60.999s41.833 -20 68.5 -20c58 0 93.667 27 107 81h37z" />
    <glyph glyph-name="dotaccent" unicode="&#x2d9;" horiz-adv-x="333" 
d="M199 584h-65v102h65v-102z" />
    <glyph glyph-name="ring" unicode="&#x2da;" horiz-adv-x="333" 
d="M266 677c0 -27.333 -9.66699 -50.667 -29 -70s-42.666 -29 -69.999 -29c-26.667 0 -50 9.66699 -70 29s-30 42.333 -30 69c0 27.333 9.66699 51 29 71s43 30 71 30c27.333 0 50.666 -9.66699 69.999 -29s29 -43 29 -71zM233 676.999c0 18 -6.33105 33.667 -18.998 47
s-28.334 20 -47.001 20c-18 0 -33.667 -6.66699 -47 -20s-20 -29 -20 -47c0 -17.333 6.66699 -32.666 20 -45.999s29 -20 47 -20c17.333 0 32.666 6.66699 45.999 20s20 28.666 20 45.999z" />
    <glyph glyph-name="ogonek" unicode="&#x2db;" horiz-adv-x="333" 
d="M228 -181c-18 -6 -34.668 -9.00098 -50.001 -9.00098c-31.333 0 -56.5 8.16699 -75.5 24.5s-28.5 36.833 -28.5 61.5c0 20.667 6.83301 40.334 20.5 59.001s31.834 33.667 54.501 45h50c-28.667 -16 -49.167 -31.5 -61.5 -46.5s-18.5 -29.5 -18.5 -43.5
c0 -16.667 6.16699 -30.167 18.5 -40.5s28.833 -15.5 49.5 -15.5c11.333 0 25 3 41 9v-44z" />
    <glyph glyph-name="tilde" unicode="&#x2dc;" horiz-adv-x="333" 
d="M329 688c-2.66699 -28 -11.333 -51.333 -26 -70s-33.334 -28 -56.001 -28c-19.333 0 -45 7.5 -77 22.5s-54.667 22.5 -68 22.5c-12 0 -22 -3.66699 -30 -11s-14.667 -20 -20 -38h-36c0 26.667 8.83301 49.5 26.5 68.5s39.167 28.5 64.5 28.5
c15.333 0 39.333 -7.5 72 -22.5s55.334 -22.5 68.001 -22.5c10.667 0 19.667 3.66699 27 11s13 20.333 17 39h38z" />
    <glyph glyph-name="endash" unicode="&#x2013;" horiz-adv-x="500" 
d="M500 238h-500v44h500v-44z" />
    <glyph glyph-name="emdash" unicode="&#x2014;" horiz-adv-x="1000" 
d="M1000 238h-1000v44h1000v-44z" />
    <glyph glyph-name="quoteleft" unicode="&#x2018;" horiz-adv-x="222" 
d="M142 495h-73v118c0 24.667 5.83301 46.667 17.5 66s30.167 33 55.5 41v-37c-22.667 -14 -34 -35.333 -34 -64v-36h34v-88z" />
    <glyph glyph-name="quoteright" unicode="&#x2019;" horiz-adv-x="222" 
d="M153 602c0 -24.667 -5.33301 -46 -16 -64c-12.667 -20.667 -31.667 -35 -57 -43v37c22.667 14 34 35.333 34 64v36h-34v88h73v-118z" />
    <glyph glyph-name="quotesinglbase" unicode="&#x201a;" horiz-adv-x="222" 
d="M153 -30c0 -24.667 -5.33301 -46 -16 -64c-12.667 -20.667 -31.667 -35 -57 -43v37c22.667 14 34 35.333 34 64v36h-34v88h73v-118z" />
    <glyph glyph-name="quotedblleft" unicode="&#x201c;" horiz-adv-x="389" 
d="M310 495h-73v118c0 24.667 5.83301 46.667 17.5 66s30.167 33 55.5 41v-37c-22.667 -14 -34 -35.333 -34 -64v-36h34v-88zM159 495h-73v118c0 24.667 5.83301 46.667 17.5 66s30.167 33 55.5 41v-37c-22.667 -14 -34 -35.333 -34 -64v-36h34v-88z" />
    <glyph glyph-name="quotedblright" unicode="&#x201d;" horiz-adv-x="389" 
d="M303 602c0 -24.667 -5.33301 -46 -16 -64c-12.667 -20.667 -31.667 -35 -57 -43v37c22.667 14 34 35.333 34 64v36h-34v88h73v-118zM152 602c0 -24.667 -5.33301 -46 -16 -64c-12.667 -20.667 -31.667 -35 -57 -43v37c22.667 14 34 35.333 34 64v36h-34v88h73v-118z" />
    <glyph glyph-name="quotedblbase" unicode="&#x201e;" horiz-adv-x="389" 
d="M303 -30c0 -24.667 -5.33301 -46 -16 -64c-12.667 -20.667 -31.667 -35 -57 -43v37c22.667 14 34 35.333 34 64v36h-34v88h73v-118zM152 -30c0 -24.667 -5.33301 -46 -16 -64c-12.667 -20.667 -31.667 -35 -57 -43v37c22.667 14 34 35.333 34 64v36h-34v88h73v-118z" />
    <glyph glyph-name="dagger" unicode="&#x2020;" 
d="M519 436h-211v-602h-60v602h-211v54h211v230h60v-230h211v-54z" />
    <glyph glyph-name="daggerdbl" unicode="&#x2021;" 
d="M519 55h-211v-221h-60v221h-211v54h211v334h-211v54h211v223h60v-223h211v-54h-211v-334h211v-54z" />
    <glyph glyph-name="bullet" unicode="&#x2022;" horiz-adv-x="500" 
d="M430 360c0 -49.333 -17.667 -91.666 -53 -126.999s-77.666 -53 -126.999 -53s-91.666 17.667 -126.999 53s-53 77.666 -53 126.999s17.667 91.666 53 126.999s77.666 53 126.999 53s91.666 -17.667 126.999 -53s53 -77.666 53 -126.999z" />
    <glyph glyph-name="ellipsis" unicode="&#x2026;" horiz-adv-x="1000" 
d="M870 0h-73v88h73v-88zM537 0h-73v88h73v-88zM204 0h-73v88h73v-88z" />
    <glyph glyph-name="perthousand" unicode="&#x2030;" horiz-adv-x="1000" 
d="M985 149c0 -41.333 -14.499 -76.5 -43.499 -105.5s-64.5 -43.5 -106.5 -43.5c-40 0 -74.833 14.5 -104.5 43.5s-44.5 64.167 -44.5 105.5s14.667 76.666 44 105.999s64.666 44 105.999 44c40.667 0 75.667 -14.667 105 -44s44 -64.666 44 -105.999zM313.001 548
c0 -42 -14.668 -77.333 -44.001 -106s-64.666 -43 -105.999 -43c-40 0 -74.833 14.5 -104.5 43.5s-44.5 64.167 -44.5 105.5s14.667 76.666 44 105.999s64.333 44 105 44c40 0 75 -14.667 105 -44s45 -64.666 45 -105.999zM546 705l-407 -719h-53l407 719h53zM623 149
c0 -42 -14.668 -77.333 -44.001 -106s-64.666 -43 -105.999 -43c-40 0 -74.833 14.5 -104.5 43.5s-44.5 64.167 -44.5 105.5s14.667 76.666 44 105.999s64.333 44 105 44c40 0 75 -14.667 105 -44s45 -64.666 45 -105.999zM927.999 149
c0 25.333 -9.16895 47.166 -27.502 65.499s-40.166 27.5 -65.499 27.5c-24.667 0 -46.167 -9.16699 -64.5 -27.5s-27.5 -40.166 -27.5 -65.499c0 -24.667 9.16699 -46.167 27.5 -64.5s39.833 -27.5 64.5 -27.5s46.334 9.33301 65.001 28s28 40 28 64zM255.997 548
c0 26 -9.00098 48 -27.001 66s-40 27 -66 27c-25.333 0 -47 -9 -65 -27s-27 -40 -27 -66c0 -24.667 9.16699 -46.167 27.5 -64.5s39.833 -27.5 64.5 -27.5s46.334 9.33301 65.001 28s28 40 28 64zM565.996 149c0 25.333 -9.16895 47.167 -27.502 65.5
s-40.166 27.5 -65.499 27.5s-47 -9 -65 -27s-27 -40 -27 -66c0 -24.667 9.16699 -46.167 27.5 -64.5s39.833 -27.5 64.5 -27.5s46.334 9.33301 65.001 28s28 40 28 64z" />
    <glyph glyph-name="guilsinglleft" unicode="&#x2039;" horiz-adv-x="389" 
d="M267 117l-146 111v63l146 113v-63l-104 -82l104 -80v-62z" />
    <glyph glyph-name="guilsinglright" unicode="&#x203a;" horiz-adv-x="389" 
d="M268 230l-146 -113v63l104 82l-104 80v62l146 -111v-63z" />
    <glyph glyph-name="trademark" unicode="&#x2122;" horiz-adv-x="940" 
d="M859 299h-52v377l-147 -377h-34l-145 377l-2 -377h-52v421h96l120 -311l120 311h96v-421zM349 680h-134v-381h-52v381h-134v40h320v-40z" />
    <glyph glyph-name="fraction" unicode="&#x2215;" horiz-adv-x="167" 
d="M331 705l-444 -719h-51l444 719h51z" />
    <glyph glyph-name="fi" unicode="&#xf001;" horiz-adv-x="500" 
d="M435 631h-66v89h66v-89zM432 0h-60v518h60v-518zM252 675l-17.501 3.5c-5 1 -11.167 1.5 -18.5 1.5c-22 0 -38.167 -6.66699 -48.5 -20s-15.5 -35.333 -15.5 -66v-76h98v-50h-98v-468h-60v468h-79v50h79v82c0 46.667 9.33301 80.667 28 102s45.334 32 80.001 32h23.5
c7 0 16.5 -1.33301 28.5 -4v-55z" />
    <glyph glyph-name="fl" unicode="&#xf002;" horiz-adv-x="500" 
d="M432 0h-60v720h60v-720zM252 675l-17.501 3.5c-5 1 -11.167 1.5 -18.5 1.5c-22 0 -38.167 -6.66699 -48.5 -20s-15.5 -35.333 -15.5 -66v-76h98v-50h-98v-468h-60v468h-79v50h79v82c0 46.667 9.33301 80.667 28 102s45.334 32 80.001 32h23.5c7 0 16.5 -1.33301 28.5 -4
v-55z" />
    <glyph glyph-name=".null" horiz-adv-x="0" 
 />
    <glyph glyph-name="nonmarkingreturn" horiz-adv-x="278" 
 />
    </font>
</defs>
</svg>
